<?xml version="1.0" encoding="UTF-8"?>
<svg id="Layer_1" xmlns="http://www.w3.org/2000/svg" version="1.1" viewBox="0 0 100 100">
  <!-- Generator: Adobe Illustrator 29.0.0, SVG Export Plug-In . SVG Version: 2.1.0 Build 186)  -->
  <defs>
    <style>
      .st0 {
        fill: gray;
      }
    </style>
  </defs>
  <path class="st0" d="M69.2,59.5H31.6c-13.2,0-23.9,10.7-23.9,23.9v9.4c0,2.5,1.9,5,5,5s5-1.9,5-5v-9.4c0-7.5,6.3-13.8,13.8-13.8h37.7c7.5,0,13.8,6.3,13.8,13.8v9.4c0,2.5,1.9,5,5,5s5-1.9,5-5v-9.4c-.6-13.2-10.7-23.9-23.9-23.9ZM50.4,46.9c11.9,0,22-10,22-22S62.3,3,50.4,3s-22,10-22,22,10,22,22,22ZM50.4,12.4c6.9,0,12.6,5.7,12.6,12.6s-5.7,12.6-12.6,12.6-12.6-5.7-12.6-12.6,5.7-12.6,12.6-12.6Z"/>
</svg>