<?xml version="1.0" encoding="UTF-8"?>
<svg id="Layer_1" xmlns="http://www.w3.org/2000/svg" version="1.1" xmlns:xlink="http://www.w3.org/1999/xlink" viewBox="0 0 148.8 119.7">
  <!-- Generator: Adobe Illustrator 29.0.0, SVG Export Plug-In . SVG Version: 2.1.0 Build 186)  -->
  <defs>
    <style>
      .st0 {
        fill: url(#linear-gradient);
      }
    </style>
    <linearGradient id="linear-gradient" x1="-1535.6" y1="88" x2="-1534.6" y2="88" gradientTransform="translate(228787.1 -10479.7) scale(149 119.7)" gradientUnits="userSpaceOnUse">
      <stop offset="0" stop-color="#b98947"/>
      <stop offset="1" stop-color="#faf0a1"/>
    </linearGradient>
  </defs>
  <g id="SvgjsG2740">
    <path class="st0" d="M148.8,23.4c-.2,0-.5,0-1,.4-.4.5-3,3.9-3.2,4s-.3,0-.2-.3,2.9-6.1,3.2-7c.3-.8,0-1.1-.2-1.1-.3-.1-.8,0-1.1.7s-3.1,6.7-3.3,6.9-.6,0-.4-1c.2-1,1.9-6.5,2-7.1.2-.6,0-1.2-.6-1.3s-.8.2-1,1c-.2.7-.9,2.8-1.6,5.9-.7,3.1-1.2,2.3-1.2,1.5s.7-5.2.8-5.6c.1-.5.3-1.6-.3-1.6s-.8,1.1-1.1,2.3c-.3,1.2-1.2,6.6-1.6,7-.4.4-.4-.2-.6-.9-.2-.7,0-2-.1-2.6,0-.6,0-1.3-.6-1.4s-.8,1.2-.8,1.2v6.4c0,1.3.2,3.4.2,3.4h0c0,.9.1,1.7,0,2.1-.4.9-1.7,2-4.3,6.2s-2.9,2.7-2.9,2.7c-.6-5.8-3.7-6.9-3.7-8.1s0-4.3,0-4.3c0,0,.8,0,1.4-.5.6-.4,3-3.2,3-3.2l1.1.6s.8.4.9-.2c0-.7.3-1.9.8-2.8.9-1.4,2.6-2.9,4.5-5.8.9-1.3.4-6-4.5-10.3-4.9-4.3-8.4-2-11.2,0s-5.3,7.5-5.3,7.5c-2.9-1.7-9.3-10.8-14.5-15.2-5.2-4.3-7.9-2.8-10.3-1.9-2.9,1.1-8.9,2.8-13.8,4.2-3.2.9-4.7.7-6.8.7s-7.2.2-9.1.4-1.7,1-.4,1.1c2.5,0,6.3-.3,6.3-.3,0,0-3.9,1.1-7.4,2.3-1.7.6-1.6,2.1.7,1.2,2-.8,6.7-2.4,7.1-2s-5.7,3.9-8.1,5.7-.7,2.3,0,2,8.2-6.1,9.2-5.5-5.4,5.3-6.8,7c-1.4,1.7-1.1,2.9.9,1.2,2-1.7,12.7-11,6.9-1.7-1.9,3.1-.3,3.9.8,2.2,1-1.7,4.8-5.8,5.6-7.2.9-1.4,3.7-3,6.1-3.2,2.3-.1,13.9-.6,13.9-.6,0,1.9,1.7,5,3.4,7.6,1.7,2.6-.6,5-4.3,6.5-3.7,1.4-10.1,7.2-12.5,8.8s-8,6.6-11,7.4c-3.1.7-7-.4-12,4.8-4.5,4.6-.9,7.8-3.6,9.9s-8.6,6.9-10.7,9.1c-2,2.2-5.3,6.2-7.9,8.5s-10.7,4.8-13,6-4.3,4.4-5.2,5.8c-.9,1.4-2.5,2.7-5.6,6.2-3.2,3.5-5.6,4.3-7.4,4.2-1.7,0-4.9-.4-5.8,2.6-.9,3,0,9.5,0,13.1s.9,6.5,1.4,8.6c.6,2.2,2.7,2.5,6.3,1.7,3.6-.9.6-2.5-.3-4.4-.9-1.9,0-3.3,0-5.3s0-4.5,1.7-6.3c1.7-1.9,4.3-4.9,7.9-7.5,3.6-2.6,2-1.4,8.8-4.9,6.8-3.5,6.3-6,11.1-8.4.6-.3.9,0,1.7-.3.9-.4,2.4-1.6,3.2-1.8,5.8-1.8,11.2-5.3,13.8-7,3.3-2.2,10.8-8.1,10.8-8.1,0,0,1.7-2.3,3.2-1.2,1.4,1.2,3,1.7,6.3,5.2s9.9,7.1,9.9,7.1c-7.7.6-7.4,3.6-9.1,4.5s-5.5,1.2-8.5,2.3c-3,1.2-8.9,1.9-10.2,1.9s-5.8-1.6-5.5,3.6,1.7,2.9,4.2,7.6c3.4,6.6,4,8.4,6.5,10.7,2.4,2.3,3.9.3,3.9.3,0,0,.5-.7.2-1.5-.9-1.7-2.5-5.2-2.7-6.8-.3-2.3.6-5.9.9-7.4.3-1.4,4.6-2,6.2-2.4s11.4-.4,15.3-.9c3.9-.4,12.1-2.9,15.1-4.2,3-1.3,1.7-3.4,1.2-6.5-.5-3.4-6.4-10.7-7.2-12.7-1.3-3.3-3-6-5.9-9-4.9-4.9-5.6-5-4.1-5.8,2.2-1.3,7.6-2.4,10.2-3s9.4-3.5,12.1-4.2,7.9-4.5,7.9-4.5c0,0,1.3,4,2.3,5.9s4.5,6.2,5.2,8.9,3,3.2,4.6,2.7c1.6-.4,6.2-7.5,7.8-9.9s2.9-7.8,3.5-8.8c.3-.6.9-1,1.4-1.6h0c1-.8,2.8-4.8,2.9-5.4.1-.5.5-1.3.9-1.8.6-.7,2.8-3.8,3.1-4.1.3-.4.5-1,.2-1.2v.3Z"/>
  </g>
</svg>