<?xml version="1.0" encoding="UTF-8"?>
<svg id="Layer_1" xmlns="http://www.w3.org/2000/svg" version="1.1" xmlns:xlink="http://www.w3.org/1999/xlink" viewBox="0 0 560 130">
  <!-- Generator: Adobe Illustrator 29.0.0, SVG Export Plug-In . SVG Version: 2.1.0 Build 186)  -->
  <defs>
    <style>
      .st0 {
        fill: url(#linear-gradient2);
      }

      .st1 {
        fill: url(#linear-gradient1);
      }

      .st2 {
        fill: url(#linear-gradient9);
      }

      .st3 {
        fill: url(#linear-gradient8);
      }

      .st4 {
        isolation: isolate;
      }

      .st5 {
        fill: url(#linear-gradient7);
      }

      .st6 {
        fill: url(#linear-gradient4);
      }

      .st7 {
        fill: url(#linear-gradient5);
      }

      .st8 {
        fill: url(#linear-gradient3);
      }

      .st9 {
        fill: url(#linear-gradient6);
      }

      .st10 {
        fill: url(#linear-gradient);
      }
    </style>
    <linearGradient id="linear-gradient" x1="-2299" y1="1019.8" x2="-2298" y2="1019.8" gradientTransform="translate(342539.9 122139.6) scale(149 -119.7)" gradientUnits="userSpaceOnUse">
      <stop offset="0" stop-color="#b98947"/>
      <stop offset="1" stop-color="#faf0a1"/>
    </linearGradient>
    <linearGradient id="linear-gradient1" x1="-2308.3" y1="965.5" x2="-2307.3" y2="965.5" gradientTransform="translate(859846.4 36249.6) scale(372.4 -37.5)" gradientUnits="userSpaceOnUse">
      <stop offset="0" stop-color="#faf0a1"/>
      <stop offset="1" stop-color="#b98947"/>
    </linearGradient>
    <linearGradient id="linear-gradient2" x1="184.7" y1="38.9" x2="204.5" y2="38.9" gradientTransform="translate(0 132.3) scale(1 -1)" gradientUnits="userSpaceOnUse">
      <stop offset="0" stop-color="#faf0a1"/>
      <stop offset="1" stop-color="#b98947"/>
    </linearGradient>
    <linearGradient id="linear-gradient3" x1="230.2" y1="39.9" x2="250.6" y2="39.9" gradientTransform="translate(0 132.3) scale(1 -1)" gradientUnits="userSpaceOnUse">
      <stop offset="0" stop-color="#faf0a1"/>
      <stop offset="1" stop-color="#b98947"/>
    </linearGradient>
    <linearGradient id="linear-gradient4" x1="275.1" y1="39.9" x2="291.1" y2="39.9" gradientTransform="translate(0 132.3) scale(1 -1)" gradientUnits="userSpaceOnUse">
      <stop offset="0" stop-color="#faf0a1"/>
      <stop offset="1" stop-color="#b98947"/>
    </linearGradient>
    <linearGradient id="linear-gradient5" x1="316.4" y1="39.8" x2="335.3" y2="39.8" gradientTransform="translate(0 132.3) scale(1 -1)" gradientUnits="userSpaceOnUse">
      <stop offset="0" stop-color="#faf0a1"/>
      <stop offset="1" stop-color="#b98947"/>
    </linearGradient>
    <linearGradient id="linear-gradient6" x1="396.5" y1="38.9" x2="415.5" y2="38.9" gradientTransform="translate(0 132.3) scale(1 -1)" gradientUnits="userSpaceOnUse">
      <stop offset="0" stop-color="#faf0a1"/>
      <stop offset="1" stop-color="#b98947"/>
    </linearGradient>
    <linearGradient id="linear-gradient7" x1="440.6" y1="39.8" x2="460.1" y2="39.8" gradientTransform="translate(0 132.3) scale(1 -1)" gradientUnits="userSpaceOnUse">
      <stop offset="0" stop-color="#faf0a1"/>
      <stop offset="1" stop-color="#b98947"/>
    </linearGradient>
    <linearGradient id="linear-gradient8" x1="485.7" y1="40.2" x2="504.4" y2="40.2" gradientTransform="translate(0 132.3) scale(1 -1)" gradientUnits="userSpaceOnUse">
      <stop offset="0" stop-color="#faf0a1"/>
      <stop offset="1" stop-color="#b98947"/>
    </linearGradient>
    <linearGradient id="linear-gradient9" x1="529.8" y1="39.7" x2="549.2" y2="39.7" gradientTransform="translate(0 132.3) scale(1 -1)" gradientUnits="userSpaceOnUse">
      <stop offset="0" stop-color="#faf0a1"/>
      <stop offset="1" stop-color="#b98947"/>
    </linearGradient>
  </defs>
  <g id="SvgjsG2740">
    <g>
      <path class="st10" d="M8.7,125.9c-2.3,0-3.7-1-4.2-2.8,0-.4-.2-.7-.3-1.1-.5-2-1.2-4.6-1.2-7.8s0-2.5-.2-4c-.2-3.4-.4-7.2.2-9.4,1-3.3,4.3-3.3,5.5-3.3s.5,0,.7,0c.2,0,.8,0,.8,0,1.9,0,4-1.3,6.4-3.9,1.4-1.5,2.4-2.6,3.3-3.5,1.1-1.1,1.8-1.8,2.2-2.5h0c1-1.7,3-4.9,5.5-6.1.8-.4,2.2-1,3.8-1.6,3.1-1.2,7.3-2.8,9-4.3,1.9-1.7,4.2-4.3,6-6.4.7-.8,1.3-1.5,1.8-2,2.2-2.3,8.4-7.3,10.8-9.2.8-.6.8-1.2.7-2.6,0-1.8,0-4.3,2.8-7.2,4.1-4.3,7.6-4.6,10.3-4.8.8,0,1.5-.1,2.2-.3,1.9-.5,5.3-3.2,7.8-5.1,1.1-.9,2.1-1.7,2.9-2.1.7-.5,1.8-1.4,3.1-2.4,3.1-2.4,6.9-5.5,9.6-6.5,2.3-.9,3.8-2.1,4.1-3.3.2-.6,0-1.1-.3-1.7-1.9-3-3.1-5.4-3.5-7.1l-13,.6c-2.1.2-4.6,1.6-5.3,2.7-.4.7-1.5,2-2.7,3.5-1.1,1.4-2.4,2.9-2.9,3.7-.6.9-1.3,1.4-2,1.4s-1-.3-1.3-.8c-.5-.9-.2-2.2.8-3.8.6-1,1-1.7,1.2-2.1-1,.6-2.8,1.9-6.3,4.9l-.3.2c-.9.7-1.5,1.1-2.1,1.1s-1-.3-1.2-.7c-.4-.9.3-2.1,1-2.9.6-.7,1.7-1.7,3.1-2.8,0,0,.1,0,.2-.1-.9.6-1.8,1.3-2.4,1.7-1.3.9-1.8,1.3-2.1,1.4-.2.1-.5.2-.8.2-.8,0-1.5-.4-1.7-1.1-.4-1.3,1.1-2.4,1.6-2.8,1-.7,2.5-1.7,3.9-2.6,0,0,.2-.1.3-.2-.8.3-1.6.6-2.2.8-.6.2-1.1.4-1.6.4-1.1,0-1.5-.6-1.6-1.2-.2-.9.6-1.8,1.8-2.2.2,0,.4-.1.6-.2-.9-.3-1.2-.8-1.2-1.3,0-.5.3-1.4,2.3-1.6,2-.2,7.2-.4,9.2-.4s.7,0,1,0c.3,0,.6,0,.9,0,1.4,0,2.7-.1,4.7-.7l.7-.2c4.8-1.4,10.3-2.9,13-4l.5-.2c1.1-.4,2.3-.9,3.8-.9,2.2,0,4.5,1,7,3.1,2.7,2.2,5.6,5.7,8.2,8.7,2,2.3,3.9,4.6,5.3,5.8.9-1.8,2.9-5.2,5.1-6.8,1.9-1.4,3.9-2.6,6.3-2.6s4,.9,6.1,2.7c5.1,4.5,6,9.7,4.7,11.6-.2.3-.4.6-.6.8.5.2.8.6,1,1,0-.1,0-.2,0-.3.2-.9.3-1.8.4-2.1v-.4c.4-1.3.7-2.7,2.1-2.7s.8.2,1,.5c0,.1.1.2.2.3v-.3c.2-.5.5-1.7,1.8-1.7s.2,0,.4,0c.5,0,1,.4,1.2.8.3.5.3,1.1.2,1.7,0,0,0,.2,0,.3.4-.7,1-1.1,1.7-1.1s.3,0,.4,0c.3,0,.7.3.9.6.2.3.4.9,0,1.9,0,.3-.4.9-.8,1.8.4-.2.7-.2,1-.2v.2l.6-.3c.3.2.5.5.6.9.1.8-.4,1.5-.5,1.7h0c-.1.3-.8,1.2-1.3,1.8-.7.9-1.4,1.9-1.7,2.3-.3.4-.6,1-.7,1.3-.1.8-1.9,4.8-3.2,5.9-.2.2-.4.4-.6.6-.3.3-.5.5-.6.7-.2.3-.6,1.4-.9,2.4-.7,2.2-1.6,4.9-2.7,6.5l-.4.6c-4.5,6.8-6.6,9.4-8,9.7-.4.1-.9.2-1.4.2-1.7,0-3.7-1-4.4-3.6-.4-1.6-2.1-4.1-3.4-6-.7-1.1-1.4-2-1.7-2.7-.7-1.3-1.5-3.4-1.9-4.8-1.7,1.2-5,3.3-7.1,3.9-1.2.3-3.5,1.2-5.7,2-2.5.9-5,1.9-6.5,2.2l-1.1.2c-2.6.6-7,1.6-8.8,2.6.4.4,1,1.1,1.8,1.8.7.6,1.5,1.5,2.5,2.5,2.9,3,4.7,5.8,6.1,9.3.2.6,1.2,2,2.2,3.5,2.1,3.1,4.7,7,5,9.4,0,.6.2,1.1.3,1.7.5,2.1,1,4.5-2.1,5.9-3.1,1.4-11.5,3.9-15.4,4.3-2,.3-5.6.4-8.7.5-2.7,0-5.8.2-6.5.4-.3,0-.7.2-1.1.2-1,.2-4,.8-4.3,1.4,0,.2,0,.4-.1.7-.4,1.7-1,4.5-.7,6.3.2,1.3,1.6,4.6,2.6,6.5h0c.5,1.4-.2,2.4-.3,2.5-.1.1-1,1.2-2.5,1.2s-2-.5-2.9-1.4c-2.2-2-3-3.7-5.1-7.7-.5-.9-1-2-1.6-3.2-.9-1.8-1.7-2.4-2.3-3-1.1-1-1.8-1.7-2-5,0-1.7.3-2.9,1-3.8.7-.7,1.7-1.1,3-1.1s1.3,0,1.7.2c.3,0,.5,0,.7,0,1.1,0,6.9-.7,9.8-1.8,1.5-.6,3.2-.9,4.7-1.2,1.5-.3,2.9-.6,3.7-1,.3-.1.5-.5.8-.8.8-1.1,2.1-2.6,5.8-3.4-2.3-1.4-5.6-3.6-7.6-5.8-2.2-2.3-3.6-3.3-4.7-4-.5-.4-1-.7-1.5-1.1,0,0-.2,0-.2,0-.5,0-1.2.7-1.5,1.1l-.2.2c-.3.2-7.6,6-10.9,8.1-2.4,1.6-8,5.3-14.1,7.1-.4,0-1.1.5-1.6.9-.5.4-1.1.7-1.5.9-.6.2-1.1.2-1.3.2s-.2,0-.3,0c-2.1,1-3.1,2.1-4.2,3.3-1.4,1.5-3.1,3.2-6.9,5.1-2.3,1.2-3.6,1.8-4.5,2.3-1.8.9-1.8.9-4.2,2.6-3.3,2.4-5.8,5.2-7.4,7l-.3.3c-1.4,1.5-1.4,3.7-1.4,5.6s-.1,1.5-.2,2.1c-.2,1.1-.3,1.8.1,2.8.2.4.6.9.9,1.3.7.9,1.5,1.8,1.1,2.8-.3,1-1.5,1.4-2.4,1.6-1.3.3-2.4.4-3.3.4ZM129.6,42.3c0,0,.3.4.6.7.9,1,2.3,2.7,3,6,.3-.4.7-.9,1.2-1.8,1.6-2.6,2.7-4,3.4-4.9.4-.5.6-.8.8-1.1,0-.2,0-.5,0-.8,0-.3,0-.6,0-1h0s-.2-2.1-.2-3.4v-5.6c0,0-.2.2-.2.3-.6.7-1.1,1.3-1.4,1.8-.4.7-.6,1.7-.6,2.3v.2c-.1.7-.7,1.2-1.4,1.2s-.8-.2-1-.2l-.4-.2c-.8,1-2.1,2.3-2.6,2.7-.3.3-.7.4-1,.5v3.5Z"/>
      <path d="M98.4,5.1c1.7,0,3.7.7,6.4,2.9,5.2,4.4,11.6,13.5,14.5,15.2,0,0,2.5-5.5,5.3-7.5,1.6-1.2,3.5-2.4,5.8-2.4,1.6,0,3.4.6,5.4,2.4,4.9,4.3,5.4,9,4.5,10.3-1.9,2.9-3.6,4.4-4.5,5.8-.5.9-.8,2.1-.8,2.8,0,.3-.2.3-.4.3s-.5-.1-.5-.1l-1.1-.6s-2.4,2.8-3,3.2c-.6.5-1.4.5-1.4.5v4.3c0,1.2,3.1,2.3,3.7,8.1,0,0,0,.3.3.3s1.1-.5,2.6-3c2.6-4.2,3.9-5.3,4.3-6.2.1-.4,0-1.2,0-2.1,0,0-.2-2.1-.2-3.4v-6.4s.2-1.2.7-1.2c0,0,0,0,0,0,.6,0,.6.8.6,1.4.1.6,0,1.9.1,2.6.2.5.2,1,.4,1s.1,0,.2-.1c.4-.4,1.3-5.8,1.6-7,.3-1.2.5-2.3,1.1-2.3s.4,1.1.3,1.6c-.1.4-.8,4.8-.8,5.6s.1.7.3.7.5-.5.9-2.2c.7-3.1,1.4-5.2,1.6-5.9.2-.7.4-1,.8-1,0,0,.1,0,.2,0,.6.1.8.7.6,1.3,0,.6-1.8,6.1-2,7.1-.2.8,0,1.1.2,1.1s.1,0,.2,0c.2-.2,3-6.2,3.3-6.9.2-.6.6-.7.9-.7,0,0,.1,0,.2,0,.2,0,.5.3.2,1.1-.3.9-3.1,6.7-3.2,7,0,.2,0,.3,0,.3s0,0,.1,0c.2,0,2.8-3.5,3.2-4,.5-.4.8-.4,1-.4h0v-.3c.3.2.1.8-.2,1.2-.3.3-2.5,3.4-3.1,4.1-.4.5-.8,1.3-.9,1.8,0,.6-1.9,4.6-2.9,5.4-.5.6-1.1,1-1.4,1.6-.6,1-1.9,6.4-3.5,8.8-1.6,2.4-6.2,9.5-7.8,9.9-.4.1-.7.2-1.1.2-1.4,0-2.9-.8-3.5-2.9-.7-2.7-4.2-7-5.2-8.9s-2.3-5.9-2.3-5.9c0,0-5.2,3.8-7.9,4.5-2.7.7-9.5,3.6-12.1,4.2-2.6.6-8,1.7-10.2,3-1.5.8-.8.9,4.1,5.8,2.9,3,4.6,5.7,5.9,9,.8,2,6.7,9.3,7.2,12.7.5,3.1,1.8,5.2-1.2,6.5s-11.2,3.8-15.1,4.2c-3.9.5-13.7.5-15.3.9-1.6.4-5.9,1-6.2,2.4-.3,1.5-1.2,5.1-.9,7.4.2,1.6,1.8,5.1,2.7,6.8.3.8-.2,1.5-.2,1.5,0,0-.6.8-1.7.8s-1.4-.3-2.2-1.1c-2.5-2.3-3.1-4.1-6.5-10.7-2.5-4.7-3.9-2.4-4.2-7.6-.2-3.2,1.5-3.8,3.1-3.8,1,0,1.9.2,2.4.2,1.3,0,7.2-.7,10.2-1.9,3-1.1,6.8-1.4,8.5-2.3,1.7-.9,1.4-3.9,9.1-4.5,0,0-6.6-3.6-9.9-7.1-3.3-3.5-4.9-4-6.3-5.2-.3-.2-.6-.3-.9-.3-1.2,0-2.3,1.5-2.3,1.5,0,0-7.5,5.9-10.8,8.1-2.6,1.7-8,5.2-13.8,7-.8.2-2.3,1.4-3.2,1.8-.8.3-1.1,0-1.7.3-4.8,2.4-4.3,4.9-11.1,8.4s-5.2,2.3-8.8,4.9c-3.6,2.6-6.2,5.6-7.9,7.5-1.7,1.8-1.7,4.3-1.7,6.3s-.9,3.4,0,5.3c.9,1.9,3.9,3.5.3,4.4-1.2.3-2.2.4-3,.4-1.8,0-2.9-.6-3.3-2.1-.5-2.1-1.4-5-1.4-8.6s-.9-10.1,0-13.1c.7-2.4,2.9-2.6,4.6-2.6.5,0,.9,0,1.2,0,0,0,.2,0,.3,0,1.8,0,4.1-.9,7.1-4.2,3.1-3.5,4.7-4.8,5.6-6.2.9-1.4,2.9-4.6,5.2-5.8,2.3-1.2,10.4-3.7,13-6,2.6-2.3,5.9-6.3,7.9-8.5,2.1-2.2,8-7,10.7-9.1,2.7-2.1-.9-5.3,3.6-9.9,5-5.2,8.9-4.1,12-4.8,3-.8,8.6-5.8,11-7.4s8.8-7.4,12.5-8.8c3.7-1.5,6-3.9,4.3-6.5-1.7-2.6-3.4-5.7-3.4-7.6,0,0-11.6.5-13.9.6-2.4.2-5.2,1.8-6.1,3.2-.8,1.4-4.6,5.5-5.6,7.2-.4.6-.8.9-1.2.9-.6,0-.9-1,.4-3.1,1.9-3,2-4.1,1.3-4.1-1.5,0-6.8,4.6-8.2,5.8-.7.6-1.2.8-1.5.8-.6,0-.4-.9.6-2,1.4-1.7,7.8-6.4,6.8-7,0,0-.1,0-.2,0-1.5,0-8.3,5.3-9,5.5-.1,0-.3,0-.4,0-.7,0-1.5-.6.4-2.1,2.4-1.8,8.5-5.3,8.1-5.7,0,0-.1,0-.3,0-1.1,0-5,1.3-6.8,2.1-.5.2-.9.3-1.2.3-1,0-.8-1,.5-1.5,3.5-1.2,7.4-2.3,7.4-2.3,0,0-3.8.3-6.3.3-1.3,0-1.5-.9.4-1.1,1.9-.2,7-.4,9.1-.4s1.2,0,1.8,0c1.3,0,2.7,0,5-.7,4.9-1.4,10.9-3.1,13.8-4.2,1.2-.4,2.4-1,3.9-1M98.4,3.1s0,0,0,0c-1.7,0-3.1.5-4.1,1-.2,0-.3.1-.5.2-2.7,1-8.4,2.6-12.9,3.9l-.7.2c-2.1.6-3.3.6-4.4.6s-.6,0-.9,0c-.3,0-.6,0-1,0-2,0-7.2.2-9.3.4-2.9.3-3.2,1.9-3.2,2.6,0,.3,0,.7.3,1-1.1.7-1.7,1.8-1.5,2.9.1.8.7,1.5,1.6,1.9-1.7,1.3-2.3,2.6-1.9,3.9.4,1.1,1.4,1.8,2.7,1.8s.1,0,.2,0c-.3.8-.3,1.5,0,2.1.4.8,1.2,1.3,2.1,1.3s1.7-.4,2.7-1.3l.3-.2c1.1-.9,2-1.7,2.8-2.3-.4,1.2-.4,2.3,0,3.1.4.8,1.3,1.3,2.2,1.3s2.1-.7,2.8-1.8h0c.4-.8,1.7-2.3,2.8-3.7,1.2-1.5,2.3-2.7,2.8-3.6.5-.8,2.7-2.1,4.5-2.3,1.8,0,8.8-.4,12.1-.5.4,1.4,1.3,3.5,3.4,6.6.3.5.2.8.2.9-.2.6-1.3,1.7-3.6,2.7-2.8,1.1-6.7,4.2-9.8,6.6-1.3,1-2.4,1.9-3.1,2.3s-1.8,1.3-2.9,2.2c-2.3,1.8-5.7,4.4-7.4,4.9-.6.1-1.2.2-2,.2-2.8.2-6.6.6-11,5.1-3.1,3.2-3.1,6-3,7.9,0,1.4,0,1.5-.4,1.8-2.6,2-8.7,6.9-10.9,9.3-.6.6-1.2,1.3-1.8,2.1-1.8,2.1-4.1,4.7-5.9,6.3-1.5,1.3-5.8,3-8.7,4.1-1.7.7-3.1,1.2-3.9,1.6-2.7,1.4-4.8,4.7-5.9,6.3h0c-.4.8-1.1,1.5-2.1,2.5-.9.9-1.9,2-3.3,3.6-2.1,2.3-4,3.5-5.6,3.5s-.1,0-.2,0h-.1c-.2,0-.3,0-.5,0-.2,0-.5,0-.7,0-3.5,0-5.7,1.4-6.5,4-.7,2.4-.5,6.1-.3,9.8,0,1.5.2,2.8.2,3.9,0,3.3.7,6,1.2,8.1,0,.4.2.7.3,1h0c.4,1.4,1.5,3.6,5.2,3.6s2.1-.1,3.5-.5h0c.7-.2,2.6-.7,3.1-2.3.5-1.6-.5-2.9-1.3-3.8-.3-.4-.7-.8-.8-1.1-.3-.6-.2-1.1,0-2.2.1-.7.2-1.4.2-2.3,0-1.7,0-3.7,1.2-4.9h0s.3-.4.3-.4c1.6-1.8,4.1-4.6,7.3-6.9q2.3-1.6,4-2.5c.9-.4,2.3-1.1,4.5-2.3,4-2,5.7-3.8,7.1-5.3,1.1-1.2,2-2.1,3.8-3,0,0,0,0,0,0,.3,0,.9,0,1.6-.3h.1c.5-.3,1.1-.6,1.7-1,.4-.2,1-.7,1.3-.7h0c6.2-1.9,11.9-5.7,14.3-7.3,3.3-2.2,10.6-8,10.9-8.2l.4-.4c.2-.2.4-.5.6-.6.4.3.8.6,1.3.9,1.1.7,2.4,1.6,4.6,3.9,1.6,1.7,3.9,3.4,6,4.8-2.1.8-3.2,2-4.1,3.1-.2.2-.4.5-.5.6-.6.3-2,.6-3.4.9-1.5.3-3.3.7-4.8,1.3h0c-2.7,1.1-8.4,1.8-9.5,1.8,0,0-.4,0-.5,0-.5,0-1.2-.2-1.9-.2-1.6,0-2.9.5-3.7,1.4-1,1-1.4,2.6-1.3,4.5.2,3.3.8,4.4,2.3,5.7.6.5,1.2,1.1,2.1,2.7.6,1.2,1.2,2.3,1.6,3.2,2.1,4.2,3,5.9,5.3,8,1.1,1.1,2.3,1.6,3.6,1.6s2.7-.9,3.3-1.6c.5-.8,1-2.1.5-3.4v-.2c-1.2-2-2.5-5-2.6-6.1-.2-1.6.4-4.5.7-6,0-.1,0-.2,0-.4.8-.4,2.8-.8,3.6-1,.5,0,.9-.2,1.2-.3.6-.1,3.8-.3,6.3-.3,3.3-.1,6.7-.2,8.8-.5,4.1-.4,12.4-2.9,15.7-4.4,3.9-1.7,3.2-4.9,2.7-7-.1-.5-.2-1.1-.3-1.6-.4-2.4-2.5-5.7-5.2-9.8-.9-1.3-1.9-2.8-2.1-3.4-1.4-3.7-3.3-6.6-6.3-9.6-1-1-1.9-1.8-2.5-2.5-.3-.3-.5-.5-.8-.7,2.1-.8,5.4-1.5,7.3-2,.4,0,.8-.2,1.1-.2,1.5-.3,4-1.3,6.6-2.3,2.2-.8,4.4-1.6,5.6-2,1.9-.5,4.5-2.1,6.4-3.3.5,1.3,1,2.7,1.6,3.7.4.7,1,1.7,1.8,2.8,1.2,1.8,2.9,4.2,3.3,5.7.8,3.2,3.3,4.4,5.4,4.4s1.1,0,1.7-.3c1.7-.5,3.8-3,8.5-10.1l.4-.6c1.2-1.7,2.1-4.5,2.8-6.8.3-.8.6-1.9.7-2.1h0c0-.2.3-.4.4-.6.2-.2.4-.4.6-.6,1.4-1.4,3.2-5.4,3.4-6.4h0c0-.2.3-.6.5-.9.3-.4.9-1.2,1.8-2.3.5-.6,1.1-1.5,1.3-1.7,0,0,0,0,0,0l.2-.2c.3-.4.9-1.4.7-2.5-.1-.6-.5-1.2-1-1.6l-.7.4c.1-.3.2-.5.2-.6.5-1.4,0-2.3-.2-2.8-.4-.5-.9-.9-1.5-1-.2,0-.4,0-.6,0-.2,0-.5,0-.7,0,0-.2-.1-.4-.2-.5-.4-.7-1.1-1.2-1.9-1.3-.2,0-.4,0-.5,0-.7,0-1.7.3-2.3,1.4-.3,0-.5-.1-.8-.1-.7,0-1.3.2-1.7.6-.5-2.5-2.2-5.6-5.3-8.3-2.2-1.9-4.5-2.9-6.8-2.9-3,0-5.4,1.7-6.9,2.8-2,1.4-3.7,4-4.8,6-1.2-1.2-2.8-3-4.3-4.8-2.6-3-5.6-6.5-8.3-8.8-2.8-2.3-5.3-3.4-7.7-3.4h0ZM134.6,37c1.2,0,2.2-.8,2.4-2v-.3c0-.2.1-.8.3-1.3v2.6c0,1.2.2,3.1.2,3.5,0,.3,0,.6,0,.9,0,.2,0,.3,0,.5-.1.2-.4.5-.6.7-.7,1-1.9,2.4-3.5,5-.8-2.2-1.9-3.5-2.6-4.3,0-.1-.2-.3-.3-.4v-2.4c.2-.1.4-.2.6-.4.4-.3,1.2-1.1,2.2-2.3.3.1.7.2,1.1.2h0Z"/>
    </g>
  </g>
  <g id="SvgjsG2741">
    <g>
      <path class="st1" d="M501,61.5l-1-1v-16.9l-4.7,9.1-.9.5h-4.9l-.9-.5-4.6-9v16.7l-1,1h-9.7l-1-1V23.8l1.4-.3.8-1.4h8.5l.9.5,8.1,15.3,8.1-15.3.9-.5h9.7l1,1v37.5l-1,1h-9.7ZM291.5,61.5l-.8-.4-12.8-18.3v17.7l-1,1h-9.7l-1-1V27.9l1.1-.3-1-1.5-.2-.6v-2.5l1-1h8.6l.8.4,12.8,18.2v-17.6l1-1h9.8l1,1v37.5l-1,1h-8.6ZM534,61.4l-.9-.9h-.6v.9h-4.1l-.7-.3-5.6-5.6-.3-.7v-31.8l1-1h9.7l.8.8.8-.8h20.6l1,1v8.2l-1,1h-20.6l-.5-.5v5.4l.5-.5h17.6l1,1v8.2l-1,1h-17.6l-.5-.5v5.4l.5-.5h20.6l1,1v8.2l-1,1h-20.6ZM446.7,61.4l-1-1v-7.5l1-1h2v-20.5h-2l-1-1v-7.5l1-1h15.7l1,1v7.5l-1,1h-2v20.5h2l1,1v7.5l-1,1h-15.7ZM426.8,61.4l-.9-.5-7.5-12.2h-5.1l-.5-.5v12.3h-1v.9h-9.7l-1-1V23l1-1h9.7l.8.8.7-.7h16.9l.7.3,5.6,5.6-.6.6h.9v13.1l-.3.7-5,5,5.2,7.9.2.5v4.5l-1,1h-9ZM412.8,39l.5-.5h11.7v-6.2h-11.7l-.5-.5v7.2ZM357.2,61.4l-1-1V23l1-1h9.7l.8.8.8-.8h16.1l.7.3,5.6,5.6.3.7v15.7l-.3.7-5.6,5.6-.7.3h-16.1l-.5-.5v10.1h-1v.9h-9.7ZM367.9,41.3l.5-.5h11v-8.5h-11l-.5-.5v9.5ZM335.4,61.4l-1-1v-9.5h-11l-.5-.5v10.1h-1v.9h-9.7l-1-1v-31.8l.3-.7,5.6-5.6.7-.3h4.1l.8.8.8-.8h16.1l.7.3,5.6,5.6.3.7v31.8l-1,1h-9.7ZM322.9,41.3l.5-.5h11v-8.5h-11l-.5-.5v9.5ZM234.6,61.4l-.9-.9h-.6v.9h-4.1l-.7-.3-5.6-5.6-.3-.7v-31.8l1-1h9.7l.8.8.8-.8h20.6l1,1v8.2l-1,1h-20.6l-.5-.5v5.4l.5-.5h17.6l1,1v8.2l-1,1h-17.6l-.5-.5v5.4l.5-.5h20.6l1,1v8.2l-1,1h-20.6ZM193.2,61.4l-1-1v-28.7l-.5.5h-9.5l-1-1v-8.2l1-1h9.5l.8.8.8-.8h20.8l1,1v8.2l-1,1h-10.1v28.2l-1,1h-9.7Z"/>
      <path d="M462.4,23v7.5h-3v22.5h3v7.5h-15.7v-7.5h3v-22.5h-3v-7.5h15.7M554.6,23.1v8.2h-20.6v-8.2h20.6M532.5,23.1v37.5h0c0-.1-4.1-.1-4.1-.1l-5.6-5.6v-31.8h9.7M510.7,23.1v37.5h-9.7v-21l-6.6,12.7h-4.9l-15-29.2h8.5l9,17,9-17h9.7M411.8,23.1v37.4h-9.7V23.1h9.7M384.5,23.1l5.6,5.6v15.7l-5.6,5.6h-16.1v-8.2h12v-10.5h-12v-8.2h16.1M366.9,23.1v37.4h-9.7V23.1h9.7M339.5,23.1l5.6,5.6v31.8h-9.7v-10.5h-12v-8.2h12v-10.5h-12v-8.2h16.1M321.9,23.1v37.4h-9.7v-31.8l5.6-5.6h4.1M300.1,23.1v37.5h-8.6l-24.4-35v-2.5h8.6l14.6,20.8v-20.8h9.8M255.2,23.1v8.2h-20.6v-8.2h20.6M233.1,23.1v37.4s-4.1,0-4.1,0l-5.6-5.6v-31.8h9.7M214,23.1v8.2h-11.1v29.2h-9.7V23.1h20.8M191.7,23.1v8.2h-9.5v-8.2h9.5M430.2,23.2l5.6,5.6v13l-5.6,5.6,5.6,8.6v4.5h-9l-7.8-12.7h-5.7v-8.2h12.7v-8.2h-12.7v-8.2h16.9M473.3,23.8l9.7,19v17.7h-9.7V23.8M267.2,28l9.7,13.9v18.6h-9.7V28M435.8,28.7h0c0,0,0,0,0,0M551.6,37.7v8.2h-17.6v-8.2h17.6M252.2,37.7v8.2h-17.6v-8.2h17.6M554.6,52.3v8.2h-20.6v-8.2h20.6M255.2,52.3v8.2h-20.6v-8.2h20.6M411.8,60.5h0c0,.1,0,0,0,0M366.9,60.5h0c0,.1,0,0,0,0M321.9,60.5h0c0,.1,0,0,0,0M233.1,60.5h0M233.1,60.5h0c0,.1,0,0,0,0M462.4,21h-15.7l-2,2v7.5l2,2h1v18.5h-1l-2,2v7.5l2,2h15.7l2-2v-7.5l-2-2h-1v-18.5h1l2-2v-7.5l-2-2h0ZM554.6,21.1h-20.6l-.8.7-.7-.7h-9.7l-2,2v31.8l.6,1.4,5.6,5.6,1.4.6h4.1v-1.5l1.5,1.5h20.6l2-2v-8.2l-2-2h-20.1v-2.4h17.1l2-2v-8.2l-2-2h-17.1v-2.4h20.1l2-2v-8.2l-2-2h0ZM510.7,21.1h-9.7l-1.8,1.1-7.2,13.7-7.2-13.7-1.8-1.1h-8.5l-1.4,2.3-1.8.4v36.7l2,2h9.7l2-2v-12.6l2.7,5.3,1.8,1.1h4.9l1.8-1.1,2.8-5.4v12.8l2,2h9.7l2-2V23.1l-2-2h0ZM411.8,21.1h-9.7l-2,2v37.4l2,2h9.7l1.9-1.9h.1v-10.8h4.1l7.2,11.7,1.7,1h9l2-2v-4.5l-.3-1.1-4.7-7.2,4.5-4.5.6-1.4v-13h0c0,0,0,0,0,0l-.5-1.3-5.6-5.6-1.4-.6h-16.9l-.7.7-.8-.8h0ZM413.8,33.4h10.2v4.2h-10.2v-4.2h0ZM384.5,21.1h-16.1l-.8.8-.8-.8h-9.7l-2,2v37.4l2,2h9.7l1.9-1.9h.1v-8.6h15.6l1.4-.6,5.6-5.6.6-1.4v-15.7l-.6-1.4-5.6-5.6-1.4-.6h0ZM368.9,33.3h9.5v6.5h-9.5v-6.5h0ZM339.5,21.1h-16.1l-.8.8-.8-.8h-4.1l-1.4.6-5.6,5.6-.6,1.4v31.8l2,2h9.7l1.9-1.9h.1v-8.6h9.5v8.5l2,2h9.7l2-2v-31.8l-.6-1.4-5.6-5.6-1.4-.6h0ZM323.9,33.3h9.5v6.5h-9.5v-6.5h0ZM300.1,21.1h-9.8l-2,2v14.5l-11-15.6-1.6-.9h-8.6l-2,2v2.5l.4,1.1.7,1-.9.3v32.5l2,2h9.7l2-2v-14.5l11,15.7,1.6.9h8.6l2-2V23.1l-2-2h0ZM255.2,21.1h-20.6l-.8.8-.8-.8h-9.7l-2,2v31.8l.6,1.4,5.6,5.6,1.4.6h4.1l.8-.8.8.8h20.6l2-2v-8.2l-2-2h-20.1v-2.4s17.1,0,17.1,0l2-2v-8.2l-2-2h-17.1v-2.4h20.1l2-2v-8.2l-2-2h0ZM214,21.1h-20.8l-.8.8-.8-.8h-9.5l-2,2v8.2l2,2h9v27.2l2,2h9.7l2-2v-27.2h9.1l2-2v-8.2l-2-2h0Z"/>
    </g>
  </g>
  <g id="SvgjsG2742">
    <g class="st4">
      <g class="st4">
        <g>
          <path class="st0" d="M196.7,108.7l-1-1.1.4-7.5h-3.8l-.4,7.6-1,1h-1.9l-1-1,.4-7.6h-2.8l-1-1v-2.6l1-1h3l.3-4.7h-3.2l-1-1v-2.6l1-1h3.5l.4-7.3,1-.9h1.9l1,1.1-.4,7.1h3.8l.4-7.3,1-.9h1.9l1,1.1-.4,7.1h2.7l1,1v2.6l-1,1h-3l-.3,4.7h3.2l1,1v2.6l-1,1h-3.5l-.4,7.7-1,.9h-1.9ZM196.4,95.6l.3-4.7h-3.8l-.3,4.7h3.8Z"/>
          <path d="M200.2,79.1h0M200.2,79.1l-.5,8.2h3.8v2.6h-3.9l-.4,6.7h4.3v2.6h-4.4l-.5,8.6h-1.9l.5-8.6h-5.8l-.4,8.6h-1.9l.4-8.6h-3.8v-2.6h3.9l.4-6.7h-4.3v-2.6h4.4l.5-8.2h1.9l-.5,8.2h5.8l.5-8.2h1.9M197.7,89.9h-5.8l-.4,6.7h5.8l.4-6.7M200.2,77.1h-1.9l-2,1.9-.4,6.3h-1.8l.4-6.1-2-2.1h-1.9l-2,1.9-.4,6.3h-2.5l-2,2v2.6l2,2h2.2l-.2,2.7h-2l-2,2v2.6l2,2h1.7l-.3,6.5,2,2.1h1.9l2-1.9.3-6.7h1.8l-.4,6.5,2,2.1h1.9l2-1.9.4-6.7h2.5l2-2v-2.6l-2-2h-2.2l.2-2.7h2l2-2v-2.6l-2-2h-1.7l.4-6.1-2-2.1h0ZM200.2,81.1h0,0ZM193.8,91.9h1.8l-.2,2.7h-1.8l.2-2.7h0Z"/>
        </g>
        <g>
          <path class="st8" d="M243.2,106.4l-.8-1.5c.9-1.5,1.5-2.7,1.9-4,.3-1.2.5-2.5.5-4v-2.6c0-.7-.2-1.3-.3-1.6-.1-.4-.3-.6-.7-.8-.3-.2-.8-.4-1.6-.4s-1.6.2-1.9.4c-.5.3-.9.7-1.2,1.3-.2.5-.5,1.1-.6,1.7v.3c-.1.7-.2,1.2-.2,1.8s0,1.8,0,2.6c0,.6.2,1.4.5,2,.2.5.5,1.2.7,1.8.3.6.6,1.1,1,1.4l-.7,1.7h-4.4l-.8-.4c-.3-.4-.6-.8-1-1.4-.4-.6-.6-1.2-.8-2-.2-.8-.3-1.6-.4-2.6-.1-.9-.2-2-.2-3.2s0-2.4.2-3.5c.1-1.1.3-2.1.5-2.8.1-.4.2-.8.4-1.3.1-.4.2-.8.3-1.1,0-.3.1-.5.2-.8h-1.2l-.3-.3-.4.2-.2-.2.2-.5-.3-.3c0-.8.3-1.4.4-2,0,0,0-.2,0-.3h-1l-1-1c0-.4.1-.8.3-1.1,0,0,0-.2,0-.2v-.2c.2-.3.3-.7.5-1.1.1-.2.2-.4.3-.7.2-.5.5-.9.7-1.1l.7-.3h4.2l.7,1.7c-.4.4-.6.7-.8,1.1s0,.1,0,.2h.7l.9,1.5c-.2.4-.4.8-.5,1.2,0,.1,0,.2,0,.3h2.7c0-.1.8,1.6.8,1.6-.1.1-.2.3-.4.5-.1.2-.2.3-.3.5-.1.2-.2.4-.4.5,0,0,0,0,0,.1.5-.2,1-.3,1.4-.3s.3,0,.5,0c.2,0,.5,0,.7,0,1.5,0,2.8.2,3.8.7,1.1.5,1.9,1.1,2.5,1.9.5.7.9,1.7,1.2,3,.2,1.1.3,2.3.3,3.7s0,1.9-.2,2.9c0,.9-.2,1.7-.4,2.6-.2.8-.4,1.6-.6,2.2-.2.6-.5,1.2-.9,1.8l-.8.4h-4.4Z"/>
          <path d="M237,79.5h0M237,79.5c-.4.4-.7.8-1,1.4-.3.6-.5,1.1-.7,1.6h2.2c-.3.5-.5,1-.6,1.5s-.2,1-.3,1.6l4-.2c-.3.3-.5.7-.8,1.1-.3.4-.5.8-.8,1.2-.2.4-.4.8-.6,1.3s-.3.8-.3,1.2c.3-.3.6-.6,1-.8.4-.2.8-.4,1.2-.6.4-.2.9-.3,1.3-.3s.8,0,1.2,0c1.4,0,2.5.2,3.4.6s1.6.9,2.1,1.6c.5.7.8,1.6,1,2.6s.3,2.2.3,3.5,0,1.8-.2,2.7c-.1.9-.2,1.7-.4,2.5-.2.8-.4,1.5-.6,2.1-.2.6-.5,1.1-.8,1.5h-4.4c.9-1.4,1.6-2.8,2-4.3s.5-2.9.5-4.3v-2.6c0-.8-.2-1.5-.4-2-.2-.6-.6-1-1.1-1.3-.5-.3-1.2-.5-2.1-.5s-1.9.2-2.5.6c-.6.4-1.1.9-1.5,1.6-.3.6-.6,1.3-.7,2.1s-.2,1.5-.2,2.2,0,1.9.1,2.7c.1.8.3,1.6.5,2.2.2.6.5,1.3.8,1.9.3.6.7,1.2,1.2,1.7h-4.4c-.3-.4-.6-.8-.9-1.3s-.5-1.1-.7-1.8c-.2-.7-.3-1.5-.4-2.4-.1-.9-.2-1.9-.2-3.1s0-2.3.2-3.3c.1-1,.3-2,.5-2.8.2-.8.5-1.6.7-2.4.2-.8.5-1.4.8-2h-2.7c0-.6.2-1.2.4-1.7.2-.6.4-1.1.7-1.6h-2.6c0-.3.2-.7.3-1,.1-.3.2-.7.4-1,.2-.3.3-.6.4-.9,0-.3.3-.5.5-.7h4.2M237.5,82.5h0M240.6,85.4h0M232.7,86.3c0,0,0,.1,0,.2l-.2-.2h.2M237,77.5h-4.2l-1.4.6c-.3.3-.7.7-1,1.5,0,.2-.1.3-.2.4-.3.5-.5,1-.6,1.3h0c0,.2,0,.3,0,.3-.1.4-.3.9-.3,1.5l1.8,1.8c-.1.4-.2.9-.2,1.4l.7.7-.3.8.2.2.8-.3.5.6c0,.2-.1.5-.2.7-.1.4-.3.9-.4,1.3-.2.7-.4,1.8-.5,3-.2,1.2-.2,2.3-.2,3.6s.1,2.4.2,3.3c.1,1,.2,1.9.5,2.7.3.9.5,1.6.9,2.3.4.6.7,1.1,1,1.5l1.6.8h4.4l1.4-3.4c-.3-.3-.6-.7-.8-1.2-.3-.5-.5-1.2-.7-1.6-.2-.6-.3-1.2-.4-1.8,0-.7,0-1.8,0-2.5s0-1,.2-1.7v-.3c0-.5.3-1,.5-1.4.2-.4.5-.6.8-.9.1,0,.7-.3,1.4-.3s1,.2,1.1.2c.2.1.2.2.2.2h0c.1.4.3.9.3,1.4v2.6c0,1.5-.1,2.7-.4,3.8-.3,1.2-.9,2.4-1.7,3.7l1.7,3.1h4.4l1.6-.8c.5-.7.9-1.3,1.1-2.1.2-.6.4-1.4.6-2.2.2-.9.3-1.8.4-2.7.2-1.1.2-1.7.2-3s-.1-2.8-.3-3.9c-.3-1.4-.7-2.5-1.3-3.4-.7-1-1.6-1.7-2.9-2.3-1.2-.5-2.5-.8-4.2-.8s-.6,0-.8,0c0,0,0,0,0,0l-1.3-2.8v-.2s0,0,0,0v.2-.2c0,0-1.4,0-1.4,0l-1.2-2.1c.1-.2.3-.3.4-.5l-1.4-3.4h0ZM237.5,80.5h0,0Z"/>
        </g>
        <g>
          <path class="st6" d="M283.7,106.4l-.7-.3c-.3-.3-.5-.6-.6-.9v-.4c-.1,0,0,.1,0,.1h0c0-.3-.2-.6-.2-.9s0-.3,0-.5c-.2-.5,0-.8,0-1,0-.4,0-1,.2-1.7.1-.6.2-1.2.4-1.9s.4-1.2.6-1.9c.3-.9.5-1.5.8-2.2.2-.5.4-1,.4-1.4v-.2c.2-.4.3-.8.4-1.3.1-.5.2-.9.3-1.4,0-.1,0-.2,0-.4h-.2s-4.1.5-4.1.5l-1-1.4c0-.2.2-.4.3-.7.1-.3.3-.6.4-.9.1-.3.2-.6.4-1,.1-.3.2-.6.3-.8.2-.6.4-1.1.5-1.6v-.3c.1-.4.2-.8.2-1.2,0-.5,0-.6,0-.7,0,0,0-.3,0-.3-.2,0-.3,0-.4.1-.2.1-.5.3-.7.4-.1,0-.3.1-.4.2-.1.1-.2.2-.4.3-.2.2-.4.4-.6.6-.2.2-.2.5-.3.8l-.8.7-1,.2-1.2-.7-.9-3.2.2-.6-.2-.3.2-.2h.2s0,0,0,0c.4-.3.9-.5,1.6-.8.6-.2,1.2-.4,1.6-.6h.2c.2,0,.4-.1.6-.2.4,0,.7-.2,1-.2s.4,0,.6,0c.2,0,.3,0,.4,0,.8,0,1.5,0,2.2.1.6,0,1.2.3,1.6.4.1,0,.2,0,.3.1.7.3,1.2.7,1.5,1.4.3.6.4,1.1.4,1.8s0,1-.1,1.6c0,.4-.1.8-.2,1.2,0,.1,0,.3-.1.4-.1.5-.3,1-.5,1.5l1.7-.2h.1c.4,0,1.6,0,2.1.8.4.6.6,1.2.6,1.8s0,1-.2,1.6c-.1.6-.4,1.4-.6,2-.2.5-.4.9-.4,1.2,0,.4-.2.8-.4,1.2,0,.2-.2.4-.2.6-.2.6-.4,1.2-.6,1.9-.1.3-.2.6-.2.9,0,.3-.2.6-.3,1,0,.3-.1.6-.2.9,0,.2,0,.3,0,.5,0,.3,0,.5,0,.7,0,.2,0,.3,0,.5,0,.4,0,1,.1,1.1v.2c.3.4.4.7.7,1l-.7,1.7h-4.2Z"/>
          <path d="M281.6,79.5c.8,0,1.5,0,2.1,0,.6,0,1.1.3,1.6.5.5.2.8.5,1,.9.2.4.3.8.3,1.4s0,1-.1,1.5c0,.5-.2,1-.3,1.5-.1.5-.3,1-.5,1.5s-.4.9-.6,1.4l3.4-.4c.6,0,1.1,0,1.3.4.2.3.4.7.4,1.2s0,.8-.2,1.3c-.1.5-.3,1.2-.6,1.9-.2.4-.4.9-.5,1.4s-.4,1.1-.6,1.7-.4,1.2-.6,1.9c-.2.6-.3,1.2-.5,1.8-.2.6-.2,1.1-.3,1.6,0,.5-.1.9-.1,1.3,0,.7,0,1.3.3,1.7.2.5.4.9.8,1.3h-4.2c-.2-.2-.3-.4-.4-.6,0-.2-.2-.5-.2-.8s0-.5-.1-.8,0-.5,0-.6c0-.4,0-.9.2-1.5.1-.6.2-1.2.4-1.8.2-.6.4-1.3.6-2,.2-.7.4-1.3.7-2,.2-.5.4-1.1.5-1.6.2-.5.3-1,.4-1.5s.2-.9.3-1.3c0-.4.1-.7.1-1v-.3s0-.2-.2-.2c0,0-.2-.1-.4-.1h-.7l-4.2.5c.2-.5.5-1,.7-1.6s.5-1.2.7-1.8c.2-.6.4-1.2.5-1.8.1-.6.2-1.1.2-1.6s0-.7-.1-1c-.1-.3-.2-.7-.4-1-.6,0-1.1,0-1.6.3-.5.3-1,.4-1.3.7-.3.3-.7.6-1,1-.3.4-.4.8-.5,1.2l-1,.2-.9-3.2c.4-.3.9-.5,1.4-.7.6-.2,1.2-.4,1.7-.6.6-.1,1.1-.3,1.5-.3s.8,0,1,0M276,81h0c0,.1-.1.2-.2.2l.2-.2M281.6,77.5c-.2,0-.4,0-.6,0-.1,0-.3,0-.4,0-.5,0-.9.1-1.3.2-.2,0-.3,0-.5.1h-.4c-.4.3-1,.5-1.6.7-.7.2-1.3.5-1.8.8v.3c-.1,0-.4,0-.4,0l-.2.2.3.4-.6,1.4.9,3.2,2.3,1.4,1-.2,1.5-1.5c0-.3.1-.4.2-.5,0-.1.3-.3.4-.4.1,0,.2-.2.3-.3,0,0,0,0,0,0,0,.2,0,.3,0,.5v.3c-.1.4-.3,1-.5,1.5,0,.2-.2.5-.3.8-.1.3-.3.7-.4,1,0,.2-.2.5-.3.8-.1.2-.2.5-.3.7l2.1,2.7,3-.4c0,.1,0,.2,0,.4,0,.4-.2.8-.3,1.1v.4c-.2.3-.3.8-.5,1.2-.3.7-.5,1.3-.8,2.2-.2.7-.4,1.4-.6,1.9-.2.7-.4,1.4-.5,2-.2.7-.2,1.4-.2,1.8,0,.3-.1.8.1,1.4,0,0,0,0,0,.2,0,.5.2.9.2,1.2h0s0-.1,0-.4l.2.9c.1.3.3.7.8,1.1l1.4.6h4.2l1.4-3.4c-.1-.1-.2-.2-.4-.6v-.2c-.2-.1-.2-.5-.2-.7s0-.2,0-.3c0-.2,0-.5,0-.8,0-.2,0-.3,0-.5,0-.3,0-.5.1-.7.1-.4.2-.7.3-1,0-.3.1-.5.2-.8h0c.2-.7.4-1.3.6-1.9,0-.2.1-.4.2-.6.2-.4.3-.9.4-1.4,0-.3.2-.6.3-.9h0c.3-.8.5-1.5.7-2.2.3-.8.3-1.3.3-1.9,0-.8-.2-1.6-.7-2.3-.6-.9-1.6-1.3-3-1.3h-.2s-.1,0-.1,0c0,0,0,0,0-.1,0-.1,0-.3,0-.4,0-.4.2-.8.2-1.3.1-.6.1-1.1.1-1.7,0-.9-.2-1.6-.5-2.3-.4-.9-1.1-1.5-2-1.9,0,0-.2,0-.3-.1-.5-.2-1.1-.5-1.9-.5-.7-.1-1.5-.1-2.3-.1h0Z"/>
        </g>
        <g>
          <path class="st7" d="M318.6,106.6l-2-2.1v-1s.5.5.5.5l-.7-.7.2.2h0s-.2-.2-.2-.2l.2-.2h0c.1-.1.3-.3.6-.5.2-.1.4-.2.6-.3.2,0,.3-.2.4-.3h.1c0,0,1.2-.7,1.2-.7.2-.1.5-.2.7-.3.2,0,.3-.1.5-.2h.2c.2-.1.3-.2.5-.3,0,0-.1-.2-.2-.3-.3-.4-.5-.9-.8-1.3-.1-.2-.2-.4-.3-.6-.3-.5-.5-.9-.7-1.4-.1-.3-.3-.6-.4-.9-.5-.9-.8-1.8-1-2.7,0-.4-.2-.8-.3-1.2-.1-.4-.3-.9-.4-1.4-.2-1-.2-1.9-.2-2.7,0-1.5.2-2.9.5-4.3.3-1.2.9-2.2,1.6-3.1.7-.8,1.7-1.5,2.9-1.8,1.2-.4,2.4-.5,3.7-.5s2.3.2,3.4.6c.9.4,1.8,1,2.4,1.7.6.8,1.1,1.6,1.3,2.5.2.9.3,1.8.3,2.8,0,1.8-.3,3.2-.8,4.2-.5.8-1.2,1.9-2.4,2.6-.9.6-2,1-3.2,1.2-.7.1-1.4.2-2.1.3.2.4.4.8.7,1.2,0,.1.2.3.3.4.2.4.4.7.7,1v.2c.3.4.6.8.9,1.2h.1c0,.1,0,.2,0,.2.2.3.3.5.5.7.1.1.2.3.3.4,0,.1.1.2.2.2.5,0,.9.2,1.3.3.2,0,.4.1.6.2.4.1.8.2,1.3.4.8.2,1.4.5,2,.8s1.2.7,1.7,1l.2,1.4-1.8,2.2h-1.5c-.1,0-.3-.2-.7-.3-.4-.2-1-.4-1.5-.6-.5-.2-1.2-.3-1.8-.4-.7,0-1.4-.2-2.1-.2s-1.6,0-2.1.2h-.1c-.6.1-1.1.3-1.7.5h-.1c-.4.2-.7.4-1,.5h-.2c0,.1-.3.3-.3.3-.2.1-.4.3-.5.4h-1.4ZM325.7,82.2c-.3,0-.7.1-1.1.4-.3.2-.5.5-.7,1-.2.5-.4,1-.6,2-.2.8-.2,1.6-.2,2.7v.9c0,.4,0,.7,0,1v.2c0,.2,0,.4.1.6.5-.1,1-.2,1.4-.3.6-.2,1-.4,1.3-.6.4-.4.7-.8.9-1.3.2-.5.3-1.1.3-2v-2c0-.3,0-.7-.2-1,0-.1,0-.3,0-.4-.2-.4-.3-.6-.4-.7h-.1c0-.2-.3-.3-.7-.3Z"/>
          <path d="M325.8,79.3c1.3,0,2.2.2,3,.5s1.5.8,2,1.4c.5.6.9,1.3,1.1,2.1.2.8.3,1.7.3,2.6,0,1.5-.2,2.8-.7,3.7-.5.9-1.1,1.7-2,2.2-.8.5-1.8.9-2.9,1.1s-2.2.3-3.4.3c0,.3.2.7.5,1.2.2.5.5,1,.8,1.5s.6,1.1,1,1.6c.3.6.7,1.1,1,1.5.3.5.6.8.9,1.2.3.4.5.5.6.6.3,0,.8.1,1.4.3.6.2,1.2.3,1.9.6.7.2,1.3.5,1.9.8.6.3,1.1.6,1.5.9l-1.8,2.2c-.2-.2-.5-.4-1-.6-.4-.2-1-.4-1.6-.6s-1.3-.3-2-.4-1.5-.2-2.2-.2-1.7,0-2.4.2c-.8.1-1.4.3-2,.6-.6.2-1.1.5-1.5.7-.4.3-.7.5-.9.7l-2-2.1c.1-.1.3-.3.5-.4.3-.2.7-.4,1-.6.4-.2.8-.4,1.2-.6.4-.2.8-.3,1.2-.5.4,0,.8-.3,1.1-.4.3,0,.6-.2.8-.2-.3-.4-.6-.8-1-1.4-.4-.6-.7-1.2-1.1-1.9-.4-.7-.7-1.5-1.1-2.3-.4-.8-.7-1.6-.9-2.5-.2-.9-.5-1.7-.7-2.6-.2-.9-.2-1.7-.2-2.5,0-1.6.2-2.9.5-4,.3-1.1.8-2,1.4-2.7s1.4-1.2,2.4-1.5,2.1-.5,3.4-.5M322.1,88.1h0v.9c0,.4,0,.8.1,1.2,0,.4.1.7.2,1,.1.3.2.5.2.7.9,0,1.7-.3,2.4-.5.7-.2,1.3-.5,1.7-.9.4-.4.8-.9,1.1-1.6.3-.7.4-1.4.4-2.4v-2c0-.6-.2-1.2-.3-1.7-.2-.5-.4-.9-.8-1.2-.3-.3-.8-.5-1.4-.5s-1.1.2-1.6.5c-.5.3-.8.8-1.1,1.4-.3.6-.5,1.3-.7,2.2-.2.9-.2,1.8-.2,2.9M317.3,103.8h0c0,0-.1.1-.2.2l.2-.2M325.8,77.3c-1.4,0-2.7.2-4,.6-1.4.4-2.5,1.1-3.3,2.1-.8,1-1.4,2.1-1.8,3.5-.4,1.4-.6,2.9-.6,4.5s0,1.8.2,2.9c.1.5.3,1,.4,1.4.1.4.2.8.3,1.2.2,1,.6,2,1.1,3,.2.3.3.6.4.9.2.5.4,1,.7,1.5.1.2.2.4.3.6.1.2.2.4.4.7,0,0,0,0,0,0-.2,0-.5.2-.8.3l-1,.5h-.2c0,.1-.2.2-.2.2-.1,0-.2.2-.4.2-.2.1-.4.2-.6.4-.3.2-.5.4-.8.6h0s0,0,0,0l-.2.2.2.2v2.4c0,0,1.9,2.1,1.9,2.1h2.9s.2-.1.4-.2h.2c0-.2.1-.2.2-.2.3-.2.6-.3.9-.4h.3c.4-.3.8-.4,1.4-.5h.3c.4-.2,1.3-.2,1.9-.2s1.3,0,1.9.2c.6,0,1.2.2,1.7.3.5.2,1.1.4,1.3.5h.2c.3.2.3.2.3.2l2.9-.2,1.8-2.2-.3-2.9c-.5-.4-1.1-.7-1.8-1.1-.6-.3-1.3-.6-2.1-.9-.5-.2-1-.3-1.4-.4-.2,0-.4-.1-.6-.2-.3-.1-.7-.2-1.1-.3,0-.1-.2-.2-.3-.3-.2-.2-.3-.4-.4-.6v-.2c-.1,0-.2-.2-.2-.2-.3-.3-.5-.7-.7-1l-.2-.4c-.2-.2-.4-.6-.6-.9,0-.1-.1-.2-.2-.3.2,0,.5,0,.7-.1,1.3-.2,2.5-.7,3.6-1.3,1.4-.8,2.2-2.1,2.7-3,.6-1.2,1-2.7,1-4.7s-.1-2.1-.4-3.1c-.3-1-.8-2-1.5-2.9-.7-.9-1.7-1.6-2.8-2-1.2-.4-2.3-.6-3.7-.6h0ZM324.1,88.1h0c0-1,0-1.8.2-2.5.2-.8.3-1.4.5-1.7.2-.4.3-.6.4-.6.3-.2.5-.2.6-.2s0,0,0,0h.1c0,0,0,0,0,0,0,0,0,0,0,.2,0,0,0,.2,0,.3,0,.3.1.6.1.8v2c0,.9,0,1.3-.2,1.6-.2.4-.4.7-.7,1,0,0-.4.3-.8.4-.1,0-.2,0-.3,0,0-.2,0-.4,0-.6v-.9h0Z"/>
        </g>
        <g>
          <path class="st9" d="M398.2,109.2l-2-2.1.6-1-.3-.3c.2-.2.5-.5.9-.7.2-.1.4-.2.6-.3.2,0,.3-.2.4-.3h.1c0,0,1.2-.7,1.2-.7.2-.1.5-.2.7-.3.2,0,.3-.1.5-.2h.2c.2-.1.3-.2.5-.2-.2-.3-.4-.6-.7-1-.5-1-1.1-1.9-1.6-3-.5-1.2-1-2.4-1.3-3.6-.4-1.4-.5-2.7-.5-3.8s.1-2.4.3-3.4c.3-1.2.7-2.1,1.2-2.7.5-.6,1.1-1.2,2-1.7.6-.3,1.2-.6,2-.7v-.4c0,0-.1,0-.2,0-.2,0-.5,0-.7.1-.5,0-.9.3-1.5.6l-1.5-.7-.4-3.9.8-1.1,1.1-.2,1.2,1c0-.1,0-.2,0-.2,0,0,0,0,.2.2.3.2.5.3.8.4.5,0,.9.2,1.3.2h3.2c.4,0,.7,0,1-.2h.2c.2-.1.5-.3.8-.4.1,0,.1,0,.1-.1,0,0,0,.1,0,.2l1.2-1,1.1.2.8,1.1-.4,3.9-1.6.7c-.3-.3-.8-.4-1.4-.6-.3,0-.6-.1-.8-.2v.5c.7.2,1.3.5,1.6.6.6.3,1.2.8,1.8,1.6.4.6.8,1.3,1.1,2,.2.7.4,1.5.4,2.4s0,2-.3,2.9c-.2.9-.6,1.6-1.1,2.3-.4.5-1,1.1-1.7,1.5-.7.4-1.4.7-2,.9-.8.2-1.5.3-2.1.4h-.1c-.3,0-.5,0-.8,0h0c.1.3.3.6.4.9.2.2.3.5.5.7.1.2.3.4.4.6.1.1.2.3.3.5.2.2.3.5.5.6.4.4.8.9.9,1.2,0,0,0,0,0,0,.5,0,1.1.2,1.4.3.2,0,.4.1.6.2.4.1.8.2,1.3.4.8.2,1.4.5,2,.9.6.3,1.2.7,1.7,1l.2,1.4-1.8,2.2h-1.5c-.1,0-.3-.2-.7-.3-.4-.2-1-.4-1.5-.6-.5-.2-1.2-.3-1.8-.4-.6,0-1.4-.2-2.1-.2s-1.6,0-2.1.2h-.2c-.6.1-1.1.3-1.7.5h-.1c-.4.2-.7.4-1.1.5h-.2c0,.1-.2.3-.2.3-.2.2-.4.3-.5.4h-1.4ZM403.6,91.7v1c0,.4,0,.7,0,1v.2c0,.2,0,.4.1.6.4,0,.8-.2,1.2-.3.5-.2,1-.4,1.2-.7.4-.4.6-.8.8-1.1.2-.5.2-1.2.2-2s0-1,0-1.4v-.2c-.1-.4-.2-.9-.3-1.2-.1-.3-.3-.6-.6-.9s-.3-.2-.5-.2c-.3,0-.7.1-.9.3-.2.2-.5.5-.7.9-.2.6-.4,1.1-.5,1.8,0,.8-.2,1.4-.2,2.1h0Z"/>
          <path d="M410.2,78.6l1.1.2-.4,3.9c-.5-.4-1.1-.6-1.8-.8-.7-.2-1.4-.3-2.1-.3v2.4c.8,0,1.6.4,2.2.7.6.3,1.1.8,1.5,1.3s.7,1.1.9,1.7c.2.6.3,1.3.3,2.1s-.1,1.9-.3,2.7c-.2.8-.5,1.4-.9,1.9s-.9,1-1.4,1.3c-.5.3-1.1.6-1.8.8-.7.2-1.3.3-2,.4-.7,0-1.4.1-2.2.1,0,.3.2.7.4,1.1.2.4.4.9.7,1.3.3.4.6.9.9,1.3s.6.9.9,1.2c.3.3.6.7.8,1,.2.3.4.4.6.5.3,0,.8.1,1.4.3.6.2,1.2.3,1.9.6.7.2,1.3.5,1.9.8.6.3,1.1.6,1.5.9l-1.8,2.2c-.2-.2-.5-.4-1-.6-.4-.2-1-.4-1.6-.6-.6-.2-1.3-.3-2-.4-.7,0-1.5-.2-2.2-.2s-1.7,0-2.4.2c-.8.1-1.4.3-2,.6-.6.2-1.1.5-1.5.7-.4.3-.7.5-.9.7l-2-2.1h.3c.2-.1.4-.3.7-.5s.7-.4,1-.6c.4-.2.8-.4,1.2-.6.4-.2.8-.3,1.2-.5.4,0,.8-.3,1.1-.4.3,0,.6-.2.8-.2-.4-.5-.9-1.2-1.5-2.1-.5-.9-1-1.8-1.5-2.9-.5-1.1-.9-2.2-1.2-3.4-.3-1.2-.5-2.4-.5-3.6s.1-2.3.3-3.2c.2-.9.5-1.7,1-2.3.5-.6,1-1.1,1.7-1.5.7-.4,1.5-.6,2.5-.7v-2.4c-.7,0-1.4.2-2.1.3-.7.1-1.3.4-1.9.8l-.4-3.9,1.1-.2c0,.3.3.6.6.8.3.2.7.4,1.2.5.5,0,1,.2,1.5.2h3.2c.5,0,1,0,1.4-.3.4-.1.8-.3,1.1-.5s.5-.4.5-.7M402.5,91.8h0v.9c0,.4,0,.8.1,1.2,0,.4.1.7.2,1,.1.3.2.5.2.7.8,0,1.6-.3,2.2-.5.6-.2,1.2-.5,1.6-.9s.8-.9,1-1.5c.2-.6.3-1.4.3-2.3s0-1.1-.1-1.6-.2-1.1-.4-1.6-.5-.9-.8-1.2c-.3-.3-.7-.5-1.2-.5s-1.1.2-1.5.5-.8.8-1,1.4c-.2.6-.4,1.2-.5,2-.1.8-.2,1.6-.2,2.4M410.6,76.6l-2.4,2c0-.5.3-.9.4-1-.2.1-.4.2-.5.2l-.4.2c0,0-.2,0-.5,0h-3.2c-.3,0-.7,0-1.1-.2-.2,0-.3-.1-.5-.2,0,0,.3.4.3.9l-2.4-2-1.1.2-1.6,2.2.4,3.9,1.5.7c-.5.4-.9.9-1.3,1.3-.7.8-1.1,1.8-1.4,3.1-.2,1-.3,2.3-.3,3.6s.2,2.6.6,4.1c.3,1.3.7,2.5,1.3,3.7.5,1.2,1.1,2.1,1.6,3h0c0,.1,0,.1,0,.1-.2,0-.5.2-.8.3l-1.2.6h-.2c-.1.2-.2.3-.4.4-.2.1-.4.2-.6.4-.5.3-.8.6-1,.8l.8.8-1.2,1.9,2,2.1h2.9s.2-.1.4-.2h.2c0-.2.1-.2.2-.2.3-.2.6-.3.9-.4h.3c.4-.3.8-.4,1.4-.5h.3c.4-.2,1.3-.2,1.9-.2s1.3,0,1.9.2c.6,0,1.2.2,1.7.3.5.2,1.1.4,1.3.5h.2c.3.2.3.2.3.2l2.9-.2,1.8-2.2-.3-2.9c-.5-.4-1.1-.7-1.8-1.1-.6-.3-1.3-.6-2.1-.9-.5-.2-1-.3-1.4-.4-.2,0-.4-.1-.6-.2-.3-.1-.7-.2-1.2-.3-.2-.3-.5-.7-.8-1,0,0-.3-.3-.4-.5-.1-.2-.2-.3-.3-.5-.1-.2-.3-.4-.4-.6,0,0,0-.1-.1-.2.5,0,1-.2,1.6-.4.8-.2,1.5-.5,2.3-1,.8-.5,1.5-1.2,1.9-1.8.6-.7,1-1.6,1.3-2.7.3-1.1.4-2.3.4-3.2s-.1-1.9-.4-2.7c-.3-.9-.7-1.7-1.2-2.3-.4-.4-.7-.8-1.1-1.1l1.7-.7.4-3.9-1.6-2.2-1.1-.2h0ZM405.7,87.5h0,0ZM404.5,91.7c0-.6,0-1.3.2-2,0-.6.2-1.1.4-1.6,0-.2.2-.4.3-.4,0,0,.1,0,.2,0,0,.1.2.2.3.4.1.3.2.7.3,1v.2c.1.3.1.3.1,1.2s-.1,1.5-.2,1.7c0,.1-.2.4-.5.7,0,0-.3.3-.8.4,0,0,0,0,0,0,0-.1,0-.3,0-.5v-1h0Z"/>
        </g>
        <g>
          <path class="st5" d="M452.8,106.6l-.9-1.4c.2-.3.3-.8.5-1.2,0-.2.2-.5.3-.7.2-.7.4-1.6.6-2.4h0c.2-1,.3-1.9.4-2.9.1-1,.2-2,.3-2.9,0-.4,0-.8,0-1.2,0-.5,0-.9.1-1.4,0-.5,0-.9,0-1.3,0-.2,0-.4,0-.6v-4.2c0-1-.2-1.9-.4-2.4-.1-.4-.3-.7-.7-.9-.1,0-.3-.1-.6-.2v2.9c0,1.1,0,2-.2,2.7-.2.9-.6,1.6-.9,2-.3.5-1,1-2.2,1.2-.7.1-1.5.2-2.5.2h0c-.9,0-1.6-.1-2.4-.3-.7-.1-1.4-.4-2-.9h-.1c-.6-.7-.9-1.3-1.2-2.3-.2-.8-.3-1.8-.3-3.1s0-1.9.4-2.7c.2-.6.5-1.3,1-1.8.4-.4.8-.8,1.5-1.1.5-.2,1-.4,1.7-.6h.3c.1,0,.3-.1.5-.2h.2c.3-.1.6-.1.9-.1s.3,0,.4,0c.2,0,.4,0,.7,0s.4,0,.6,0c.2,0,.4,0,.6,0h1.6c1.2,0,2.4,0,3.4.2,1,.1,1.8.3,2.5.7.8.4,1.4.9,1.8,1.6.3.5.7,1.2.9,2.2.2.8.3,1.7.4,3v6.1c0,.9,0,1.7-.2,2.6l-.4,3.6c0,.9-.2,2-.4,3,0,1-.3,1.8-.5,2.6,0,.2,0,.4-.1.6-.1.6-.2,1-.4,1.4l-.9.6h-4.3ZM446.6,88.3s.1,0,.2,0,.1,0,.2,0c0,0,0,0,.1-.1,0-.1.2-.2.2-.3,0-.3.1-.6.1-1v-3.6c0-.3,0-.7,0-.8v-.3c-.2-.1-.2-.2-.4-.3,0,0,0,0,0,0,0,0-.1,0-.3,0s-.3,0-.3,0c-.2.2-.2.2-.2.3,0,.4-.2.7-.2,1.1v3.6c0,.4,0,.7.1.7,0,.1.1.2.2.3,0,0,.1.2.1.2h.1c0,.1,0,.1,0,.1Z"/>
          <path d="M448.3,79.4c.3,0,.7,0,1.1,0h1.6c1.2,0,2.3,0,3.2.2.9,0,1.6.3,2.2.6.6.3,1.1.7,1.4,1.2s.6,1.1.8,1.9c.2.8.3,1.7.4,2.8v6c0,.9-.1,1.8-.2,2.8s-.2,2.1-.3,3.1-.2,2.1-.4,3.1c-.1,1-.3,1.8-.5,2.6-.2.8-.3,1.4-.5,1.8h-4.3c.3-.6.5-1.3.8-2.1.2-.8.4-1.7.6-2.6s.3-1.9.4-2.9.2-2,.3-2.9.1-1.8.2-2.6,0-1.5,0-2.1v-4.2c0-1.1-.2-2-.4-2.7-.2-.7-.6-1.2-1.1-1.5-.5-.3-1.2-.4-2.1-.4v4c0,1,0,1.9-.2,2.5-.1.7-.4,1.2-.7,1.6-.3.4-.8.7-1.5.8-.7,0-1.4.2-2.4.2h0c-.9-.1-1.6-.1-2.3-.3-.6,0-1.2-.4-1.6-.7-.4-.4-.7-.9-.9-1.7-.2-.7-.3-1.7-.3-2.9s0-1.7.3-2.3c.2-.6.4-1.1.8-1.5.4-.4.7-.7,1.2-.9.5-.2,1-.4,1.6-.6.3,0,.6,0,1-.2.4,0,.9,0,1.3,0s.3,0,.5,0M446.7,81c-.4,0-.7,0-1,.3-.2.2-.4.4-.5.8-.1.4-.2.8-.2,1.3v3.6c0,.5.1,1,.3,1.3s.3.6.6.8c.2.2.6.3.9.3s.7,0,.9-.3c.2-.3.4-.5.5-.8.1-.4.2-.8.2-1.3v-3.6c0-.6,0-1-.2-1.3-.1-.4-.3-.6-.5-.8-.2-.2-.5-.3-1-.3h0M448.3,77.4c-.3,0-.6,0-.9,0,0,0,0,0,0,0s0,0-.1,0c-.3,0-.7,0-1.1.1h-.3c-.1,0-.2.1-.3.1,0,0,0,0,0,0h-.6c-.7.3-1.2.5-1.7.7-.9.4-1.4.9-1.9,1.3-.7.7-1,1.5-1.2,2.2-.4,1-.4,1.8-.4,3.1s.1,2.5.4,3.4c.3,1.1.7,1.9,1.4,2.6l.2.2c.7.5,1.5.9,2.4,1.1.9.2,1.7.2,2.6.2h.1c1.1.1,2,0,2.7-.1,1.2-.2,2.2-.7,2.8-1.6.3-.4.7-.9.9-1.7v1.2c0,.2,0,.5,0,.7,0,.4,0,.8,0,1.2,0,.5,0,1-.1,1.4,0,.4,0,.8,0,1.2-.1.9-.2,1.9-.3,2.9,0,1-.2,1.9-.4,2.7-.2.8-.4,1.7-.6,2.4,0,.2-.2.5-.2.7-.2.4-.3.8-.4,1.1l1.8,2.9h4.3l1.8-1.1c.3-.5.4-1,.5-1.6,0-.2,0-.4.1-.6.2-.8.4-1.7.5-2.8.2-1,.3-2,.4-3v-.2c0-.5.1-1,.2-1.6,0-.5,0-1,.1-1.5v-.3c.1-.9.2-1.8.2-2.7v-6.2c-.1-1.3-.2-2.2-.5-3.1-.3-1.1-.7-1.9-1-2.4-.5-.8-1.2-1.5-2.2-2-.8-.4-1.7-.7-2.8-.8-1.1-.2-2.3-.2-3.5-.2h-1.6c-.2,0-.3,0-.5,0-.2,0-.4,0-.6,0h0Z"/>
        </g>
        <g>
          <path class="st3" d="M494.7,106.4l-.8-.4c-.3-.5-.7-1-.9-1.6,0-.3-.2-1-.2-1.8s.1-2,.4-3.2c.1-.8.3-1.7.6-2.7,0-.4.2-.8.3-1.2,0,0,0,0-.1,0q-.7,0-1,0h-.2c-.1,0-.3,0-.5.2-.2,0-.3.1-.5.1l-1.2.3h-.2c-.2,0-.3,0-.5,0-.2,0-.4,0-.6,0h-.1s0,0,0,0c-.7,0-1.3-.3-1.8-.8-.4-.4-.8-1-1-1.6-.2-.7-.5-1.4-.5-2.4s0-.7,0-1.1c0-.4,0-.8,0-1.3,0-.9,0-1.8.1-2.7.1-.9.2-1.7.4-2.5.2-.9.5-1.6,1-2.4.6-.9,1.2-1.5,1.8-1.9.5-.3,1.3-.8,2.4-1.2.9-.3,2-.5,3.4-.5h1c.4,0,.9,0,1.4.1.5,0,.9,0,1.3.2h.2c.2,0,.4.1.5.1.2,0,.5,0,.7.1.5,0,1.1.2,1.6.4.5.3,1,.5,1.4.9.3.3.7.8.9,1.5.2.5.4,1.2.4,2s0,1.2-.2,1.9c-.1.7-.4,1.2-.9,1.6-.5.5-1,.8-1.5,1-.6.2-1.4.4-2.5.4s-1.5,0-2.2-.2c-.6-.1-1.1-.5-1.6-1-.4-.4-.7-.9-.9-1.6-.1-.6-.2-1.1-.2-1.9v-2h-.3c-.4,0-.6,0-.8.2-.2.2-.5.5-.7.9-.3.4-.4.9-.6,1.4-.2.5-.3,1.1-.4,1.7-.1.6-.2,1.1-.2,1.7v1.5c0,1.2.2,2,.5,2.5.3.5.8.7,1.6.7h1.6c.5,0,.9,0,1.3,0h.2c.4,0,.9-.1,1.3-.2.5,0,1-.2,1.6-.3h.1s1.1,1.3,1.1,1.3c-.6,2-1.1,3.8-1.5,5.4-.4,1.6-.6,3-.6,4.1s0,1.1.2,1.5c.2.4.3.8.5.9l-.6,1.8h-4.2ZM499.5,85.4s0,0,0-.1h0c0-.2,0-.4,0-.6v-1.1c0-.6,0-1.2-.2-1.5-.2-.3-.3-.4-.4-.4,0,0,0,.1-.1.2,0,0,0,.3,0,.5v.9l.2.3v1.1c0,.1,0,.3.1.5,0,0,0,.1.1.2,0,0,0,0,0,0s.1,0,.1,0Z"/>
          <path d="M496,78.8c.4,0,.9,0,1.3.1.5,0,.9,0,1.4.2.5,0,.9,0,1.2.2.5,0,1,.2,1.5.4.4.2.8.4,1.1.7.3.3.6.7.7,1.1.2.4.3,1,.3,1.7s0,1.1-.2,1.6c-.1.5-.3.9-.6,1.2-.3.3-.7.6-1.2.8-.5.2-1.2.3-2.1.3s-1.4,0-1.9-.2c-.5,0-.9-.4-1.2-.7-.3-.3-.5-.7-.6-1.1-.1-.5-.2-1-.2-1.7v-2.2c0-.2,0-.4.1-.6-.2,0-.4-.2-.7-.2h-.7c-.5,0-1,.1-1.4.4s-.7.7-1,1.2-.5,1-.7,1.6c-.2.6-.3,1.2-.4,1.9-.1.6-.2,1.2-.2,1.8v1.5c0,1.4.2,2.4.7,3.1.5.7,1.3,1.1,2.4,1.1h1.6c.5,0,1,0,1.5-.1.5,0,1-.1,1.5-.2.5-.1,1.1-.2,1.7-.3-.6,2-1.1,3.8-1.5,5.4-.4,1.7-.6,3.1-.6,4.3s0,1.3.3,1.9c.2.5.4,1,.8,1.3h-4.2c-.3-.4-.6-.8-.7-1.2s-.2-1-.2-1.6.1-1.8.4-3c.2-1.2.6-2.6,1-4.3v-.2c0-.4-.4-.6-1.2-.6s-.8,0-1.2.1c-.4,0-.8.2-1.2.3-.4,0-.8.2-1.2.3-.4,0-.8,0-1.1,0-.5,0-.9-.2-1.2-.5-.3-.3-.6-.8-.8-1.3-.2-.6-.4-1.2-.4-2s-.1-1.5-.1-2.4,0-1.7.1-2.6c.1-.9.2-1.6.4-2.4s.5-1.4.9-2.1c.4-.6.9-1.2,1.5-1.6.6-.4,1.3-.8,2.2-1.1.9-.3,1.9-.4,3.1-.4s.6,0,1,0M499.4,86.3c.3,0,.5,0,.7-.2.2,0,.3-.3.4-.6.1-.2.2-.5.2-.9v-1.1c0-.8,0-1.5-.3-2s-.6-.8-1.2-.9c-.3,0-.5,0-.7.2-.2.2-.3.4-.4.6s-.2.6-.2.9v1.1h.2v1.2c0,.3.1.6.2.9.1.2.2.4.4.6.2.2.4.2.7.2M499.9,92.5h0M489.3,95.2s0,0,0,0h-.1s0,0,0,0M496,76.8h-1c-1.5,0-2.7.2-3.7.5-1.2.4-2.1,1-2.7,1.3-.7.5-1.4,1.2-2.1,2.2h0c-.5,1-.9,1.7-1.1,2.7-.2.9-.3,1.7-.4,2.7-.1,1-.1,1.9-.1,2.8s0,1,0,1.4c0,.3,0,.7,0,1,0,1.1.3,2,.5,2.6h0c.3.9.8,1.6,1.2,2.1.7.7,1.6,1.1,2.5,1.1h0s.1,0,.1,0h0c.3,0,.5,0,.7,0,.1,0,.3,0,.4,0h.5c0,0,1.2-.4,1.2-.4.2,0,.4-.1.5-.2,0,0,.1,0,.2,0-.2.9-.4,1.8-.6,2.6-.3,1.3-.4,2.7-.4,3.4s.2,1.8.3,2.1c.2.8.7,1.4,1,1.9l1.6.8h4.2l1.2-3.6c0,0,0,0,0,0,0,0-.2-.4-.2-.5v-.2c0,0-.1-.1-.1-.2,0-.1,0-.5,0-.8,0-1,.2-2.3.5-3.8.4-1.5.9-3.3,1.5-5.3l-1.9-2.2v-.4s0,0,0,0v.4l-.3-.4c-.6.1-1.2.2-1.8.3-.4,0-.8.2-1.1.2h-.4c-.3.1-.7.1-1.1.1h-1.6c-.6,0-.7-.2-.8-.3-.1-.2-.3-.7-.3-1.9v-1.5c0-.4,0-.9.2-1.5.1-.7.2-1.2.3-1.6.2-.5.3-.9.5-1.2v.3c0,.9.1,1.6.2,2.1h0c.2.9.6,1.6,1.1,2.1.6.6,1.3,1,2,1.2.8.3,1.5.3,2.5.3s2.1-.1,2.8-.4c.7-.3,1.3-.7,1.9-1.2.5-.5.9-1.2,1.1-2,.3-.8.3-1.4.3-2.2s-.1-1.8-.4-2.4c-.3-.8-.8-1.4-1.2-1.8-.5-.5-1.1-.8-1.6-1.1h-.2c-.6-.3-1.2-.4-1.8-.6-.3,0-.6-.1-.8-.2-.1,0-.3,0-.5,0h-.2c-.4-.1-.8-.2-1.4-.2-.6-.1-1.1-.1-1.5-.1h0Z"/>
        </g>
        <g>
          <path class="st2" d="M538.1,106.6l-.9-.6c-.3-.7-.5-1.3-.6-2-.2-.7-.3-1.6-.4-2.4,0-.8-.2-1.6-.3-2.4v-.2s0-.1,0-.1c0-.9,0-1.7-.2-2.6h0v-3.4c-.1,0-.2,0-.3,0h-.2c-.3,0-.7.2-1.1.3-.5.2-.9.4-1.4.6-.2.1-.4.2-.6.3-.3.2-.7.4-1.1.6l-1.6-.8v-3.2l.3-.7.3-.3.3-.2c.1,0,.2-.1.3-.2.3-.2.7-.4,1.2-.6l1.8-.6c.7-.2,1.4-.3,2-.4,0,0,.5,0,.6,0v-2.5c0-.6,0-1.2.1-1.9,0-.1,0-.3,0-.4,0,0-.1,0-.2,0-.4,0-.9.2-1.2.3-.4.2-.7.4-1,.6-.2.2-.3.3-.5.6l-1,.5-1.7-.2-.9-1.1.3-3.1.7-.9c.6-.2,1.2-.4,1.9-.6.7-.2,1.5-.3,2.1-.4h.2c.7-.1,1.6-.2,2.3-.2h3.8c.8,0,1.6.1,2.3.2h.2c.7.1,1.4.2,2.1.4.7.2,1.5.4,2,.6l.6.8.3,3.1-.9,1.1-1.7.2-1-.5c-.2-.3-.3-.5-.5-.6-.4-.3-.6-.4-1-.6-.4-.2-.8-.3-1.2-.3-.2,0-.3,0-.5,0,0,.1,0,.3,0,.4,0,.6,0,1.2-.1,1.9,0,.3,0,.6,0,1,0,.2,0,.4,0,.7v.7c.2,0,.5,0,.7.2.3.1.6.1,1,.2.2,0,.4,0,.6,0,.4,0,.8.2,1.1.3.2,0,.4.1.6.2.5,0,.9.2,1.2.4h.2c0,0,.7,1.1.7,1.1l-.2,3.4-1.4.8c-.2-.1-.5-.3-.7-.4-.1,0-.3-.2-.4-.3l-1.2-.6c-.3-.1-.7-.2-1.3-.3-.3,0-.6,0-.9-.1v3.8h.8c1.5,0,2.7.5,3.6,1.4.9.9,1.3,2.1,1.3,3.6s0,2.7-1.2,4.1c-1,1-2.3,1.4-4,1.4h-4.2ZM541.9,98.9c0,.3,0,.6.1.9,0,.7.2,1.5.4,2,.1.4.3.7.4,1,0,0,0,0,0-.1,0-.1,0-.3,0-.4v-1.4q0-.4,0-.6v-.2c-.1-.2-.2-.4-.3-.6-.2-.2-.3-.5-.5-.6,0,0,0,0-.1,0Z"/>
          <path d="M541.2,79.7c.7,0,1.5,0,2.2.2.7,0,1.5.2,2.2.4.7.2,1.4.4,1.9.6l.3,3.1-1.7.2c-.2-.4-.4-.7-.8-1s-.7-.5-1.2-.7c-.4-.2-.9-.3-1.4-.4-.5-.1-1.1-.2-1.6-.2,0,.5,0,1,0,1.5s0,1.1,0,1.7c0,.6,0,1.2,0,1.8v1.6c.4,0,.8,0,1.4.2s1.1.2,1.7.3c.6.1,1.2.3,1.7.4.5,0,1,.3,1.3.4l-.2,3.4c-.4-.2-.7-.5-1.1-.7s-.8-.4-1.2-.6c-.5-.2-1-.3-1.6-.4s-1.3-.2-2.1-.3v6c0,1,0,1.9.2,2.7.1.8.2,1.6.4,2.2.2.6.4,1.1.6,1.5.2.4.6.6.9.6s.4,0,.5-.2c0-.2.2-.4.3-.7,0-.3,0-.6,0-1v-1.4c0-.5,0-.6,0-.9,0-.3-.2-.7-.4-1-.2-.3-.4-.6-.6-.8-.2-.2-.5-.3-.9-.3h-.5v-.8h1.3c1.3,0,2.2.4,2.9,1.1.7.7,1,1.7,1,2.9s-.3,2.6-1,3.4c-.7.7-1.7,1.1-3.2,1.1h-4.2c-.2-.5-.4-1.1-.5-1.8-.2-.7-.3-1.5-.4-2.3,0-.8-.2-1.7-.3-2.6,0-.9,0-1.8-.2-2.7v-4.3c-.5,0-1,0-1.5.1-.5,0-1,.2-1.5.4-.5.2-1,.4-1.5.7-.5.3-1.1.6-1.7,1v-3.2l.3-.3c.4-.2.8-.5,1.4-.7.6-.2,1.2-.4,1.8-.6.6-.2,1.2-.3,1.8-.4.6,0,1.1-.2,1.4-.2v-3.4c0-.6,0-1.2,0-1.8,0-.6,0-1.1.2-1.6-.6,0-1.1,0-1.6.2-.5,0-1,.2-1.4.4-.4.2-.8.4-1.2.7-.4.3-.6.6-.8,1l-1.7-.2.3-3.1c.6-.2,1.2-.4,1.9-.6.7-.2,1.5-.3,2.2-.4.7,0,1.5-.2,2.2-.2h3.8M541.2,77.7h-3.8c-.8,0-1.7.1-2.5.2h-.2c-.7.1-1.5.2-2.2.5-.7.2-1.4.4-2,.6l-1.4,1.7-.3,3.1,1.8,2.2,1.7.2,2-1.1c.1-.2.1-.2.2-.3.2-.2.4-.3.7-.4,0,.3,0,.6,0,.9v1.7c-.6,0-1.2.2-1.8.4l-.9.3-.9.3c-.6.2-1.1.5-1.4.7,0,0-.2.1-.3.2l-.5.4-.3.3-.6,1.4v3.2l3.1,1.7c.3-.2.7-.4,1-.6.2-.1.4-.2.6-.4.4-.2.8-.4,1.2-.6,0,0,.2,0,.3-.1v2.3c.1.9.2,1.7.2,2.5v.2c.1.9.2,1.8.3,2.6.1.8.2,1.7.4,2.5.1.7.3,1.4.6,2.1l1.9,1.3h4.2c1.9,0,3.5-.6,4.6-1.7h0c1.3-1.6,1.5-3.9,1.5-4.8,0-1.8-.5-3.3-1.6-4.3-1.1-1.1-2.5-1.6-4.1-1.7v-1.6c.4,0,.6.1.9.2h0s1,.6,1,.6c0,0,.2.1.3.2.2.2.5.3.8.5l2.9-1.7.2-3.4-1.4-2h-.2c-.3-.2-.8-.4-1.3-.5-.2,0-.4,0-.6-.1-.4,0-.8-.2-1.2-.3-.2,0-.4,0-.6,0-.3,0-.5,0-.8-.1,0,0,0,0,0,0,0-.2,0-.4,0-.6,0-.3,0-.6,0-.8,0-.4.1-.8.1-1.2,0,0,.2,0,.2,0h.2c.3.2.4.3.7.5,0,0,.1,0,.2.3l2,1.1,1.7-.2,1.8-2.2-.3-3.1-1.2-1.7c-.6-.2-1.4-.5-2.1-.7-.8-.2-1.5-.3-2.2-.4h-.2c-.8-.1-1.7-.3-2.5-.3h0Z"/>
        </g>
      </g>
    </g>
  </g>
</svg>