<?xml version="1.0" encoding="UTF-8"?>
<svg id="Layer_1" xmlns="http://www.w3.org/2000/svg" version="1.1" xmlns:xlink="http://www.w3.org/1999/xlink" viewBox="0 0 551.2 119.7">
  <!-- Generator: Adobe Illustrator 29.0.0, SVG Export Plug-In . SVG Version: 2.1.0 Build 186)  -->
  <defs>
    <style>
      .st0 {
        fill: url(#linear-gradient2);
      }

      .st1 {
        fill: url(#linear-gradient1);
      }

      .st2 {
        fill: url(#linear-gradient9);
      }

      .st3 {
        fill: url(#linear-gradient8);
      }

      .st4 {
        isolation: isolate;
      }

      .st5 {
        fill: url(#linear-gradient7);
      }

      .st6 {
        fill: url(#linear-gradient4);
      }

      .st7 {
        fill: url(#linear-gradient5);
      }

      .st8 {
        fill: url(#linear-gradient3);
      }

      .st9 {
        fill: url(#linear-gradient6);
      }

      .st10 {
        fill: url(#linear-gradient);
      }
    </style>
    <linearGradient id="linear-gradient" x1="-1535.6" y1="88" x2="-1534.6" y2="88" gradientTransform="translate(228787.1 -10479.7) scale(149 119.7)" gradientUnits="userSpaceOnUse">
      <stop offset="0" stop-color="#b98947"/>
      <stop offset="1" stop-color="#faf0a1"/>
    </linearGradient>
    <linearGradient id="linear-gradient1" x1="-1541.8" y1="124.2" x2="-1540.8" y2="124.2" gradientTransform="translate(574388.3 -4622.2) scale(372.4 37.5)" gradientUnits="userSpaceOnUse">
      <stop offset="0" stop-color="#faf0a1"/>
      <stop offset="1" stop-color="#b98947"/>
    </linearGradient>
    <linearGradient id="linear-gradient2" x1="182.3" y1="88.3" x2="200.1" y2="88.3" gradientUnits="userSpaceOnUse">
      <stop offset="0" stop-color="#faf0a1"/>
      <stop offset="1" stop-color="#b98947"/>
    </linearGradient>
    <linearGradient id="linear-gradient3" x1="227.8" y1="87.3" x2="246.2" y2="87.3" xlink:href="#linear-gradient2"/>
    <linearGradient id="linear-gradient4" x1="272.4" y1="87.3" x2="286.7" y2="87.3" xlink:href="#linear-gradient2"/>
    <linearGradient id="linear-gradient5" x1="313.7" y1="87.7" x2="331.1" y2="87.7" xlink:href="#linear-gradient2"/>
    <linearGradient id="linear-gradient6" x1="393.8" y1="88.5" x2="411.3" y2="88.5" xlink:href="#linear-gradient2"/>
    <linearGradient id="linear-gradient7" x1="438.2" y1="87.3" x2="455.7" y2="87.3" xlink:href="#linear-gradient2"/>
    <linearGradient id="linear-gradient8" x1="483.3" y1="87.1" x2="500" y2="87.1" xlink:href="#linear-gradient2"/>
    <linearGradient id="linear-gradient9" x1="527.4" y1="87.4" x2="544.8" y2="87.4" xlink:href="#linear-gradient2"/>
  </defs>
  <g id="SvgjsG2740">
    <path class="st10" d="M148.8,23.4c-.2,0-.5,0-1,.4-.4.5-3,3.9-3.2,4s-.3,0-.2-.3,2.9-6.1,3.2-7c.3-.8,0-1.1-.2-1.1-.3-.1-.8,0-1.1.7s-3.1,6.7-3.3,6.9-.6,0-.4-1c.2-1,1.9-6.5,2-7.1.2-.6,0-1.2-.6-1.3s-.8.2-1,1c-.2.7-.9,2.8-1.6,5.9-.7,3.1-1.2,2.3-1.2,1.5s.7-5.2.8-5.6c.1-.5.3-1.6-.3-1.6s-.8,1.1-1.1,2.3c-.3,1.2-1.2,6.6-1.6,7-.4.4-.4-.2-.6-.9-.2-.7,0-2-.1-2.6,0-.6,0-1.3-.6-1.4s-.8,1.2-.8,1.2v6.4c0,1.3.2,3.4.2,3.4h0c0,.9.1,1.7,0,2.1-.4.9-1.7,2-4.3,6.2s-2.9,2.7-2.9,2.7c-.6-5.8-3.7-6.9-3.7-8.1s0-4.3,0-4.3c0,0,.8,0,1.4-.5.6-.4,3-3.2,3-3.2l1.1.6s.8.4.9-.2c0-.7.3-1.9.8-2.8.9-1.4,2.6-2.9,4.5-5.8.9-1.3.4-6-4.5-10.3-4.9-4.3-8.4-2-11.2,0s-5.3,7.5-5.3,7.5c-2.9-1.7-9.3-10.8-14.5-15.2-5.2-4.3-7.9-2.8-10.3-1.9-2.9,1.1-8.9,2.8-13.8,4.2-3.2.9-4.7.7-6.8.7s-7.2.2-9.1.4-1.7,1-.4,1.1c2.5,0,6.3-.3,6.3-.3,0,0-3.9,1.1-7.4,2.3-1.7.6-1.6,2.1.7,1.2,2-.8,6.7-2.4,7.1-2s-5.7,3.9-8.1,5.7-.7,2.3,0,2,8.2-6.1,9.2-5.5-5.4,5.3-6.8,7c-1.4,1.7-1.1,2.9.9,1.2,2-1.7,12.7-11,6.9-1.7-1.9,3.1-.3,3.9.8,2.2,1-1.7,4.8-5.8,5.6-7.2.9-1.4,3.7-3,6.1-3.2,2.3-.1,13.9-.6,13.9-.6,0,1.9,1.7,5,3.4,7.6,1.7,2.6-.6,5-4.3,6.5-3.7,1.4-10.1,7.2-12.5,8.8s-8,6.6-11,7.4c-3.1.7-7-.4-12,4.8-4.5,4.6-.9,7.8-3.6,9.9s-8.6,6.9-10.7,9.1c-2,2.2-5.3,6.2-7.9,8.5s-10.7,4.8-13,6-4.3,4.4-5.2,5.8c-.9,1.4-2.5,2.7-5.6,6.2-3.2,3.5-5.6,4.3-7.4,4.2-1.7,0-4.9-.4-5.8,2.6-.9,3,0,9.5,0,13.1s.9,6.5,1.4,8.6c.6,2.2,2.7,2.5,6.3,1.7,3.6-.9.6-2.5-.3-4.4-.9-1.9,0-3.3,0-5.3s0-4.5,1.7-6.3c1.7-1.9,4.3-4.9,7.9-7.5,3.6-2.6,2-1.4,8.8-4.9,6.8-3.5,6.3-6,11.1-8.4.6-.3.9,0,1.7-.3.9-.4,2.4-1.6,3.2-1.8,5.8-1.8,11.2-5.3,13.8-7,3.3-2.2,10.8-8.1,10.8-8.1,0,0,1.7-2.3,3.2-1.2,1.4,1.2,3,1.7,6.3,5.2s9.9,7.1,9.9,7.1c-7.7.6-7.4,3.6-9.1,4.5s-5.5,1.2-8.5,2.3c-3,1.2-8.9,1.9-10.2,1.9s-5.8-1.6-5.5,3.6,1.7,2.9,4.2,7.6c3.4,6.6,4,8.4,6.5,10.7,2.4,2.3,3.9.3,3.9.3,0,0,.5-.7.2-1.5-.9-1.7-2.5-5.2-2.7-6.8-.3-2.3.6-5.9.9-7.4.3-1.4,4.6-2,6.2-2.4s11.4-.4,15.3-.9c3.9-.4,12.1-2.9,15.1-4.2,3-1.3,1.7-3.4,1.2-6.5-.5-3.4-6.4-10.7-7.2-12.7-1.3-3.3-3-6-5.9-9-4.9-4.9-5.6-5-4.1-5.8,2.2-1.3,7.6-2.4,10.2-3s9.4-3.5,12.1-4.2,7.9-4.5,7.9-4.5c0,0,1.3,4,2.3,5.9s4.5,6.2,5.2,8.9,3,3.2,4.6,2.7c1.6-.4,6.2-7.5,7.8-9.9s2.9-7.8,3.5-8.8c.3-.6.9-1,1.4-1.6h0c1-.8,2.8-4.8,2.9-5.4.1-.5.5-1.3.9-1.8.6-.7,2.8-3.8,3.1-4.1.3-.4.5-1,.2-1.2v.3Z"/>
  </g>
  <g id="SvgjsG2741">
    <path class="st1" d="M188.3,17.9v8.2h-9.5v-8.2s9.5,0,9.5,0ZM189.8,17.9h20.8v8.2h-11.1v29.2h-9.7V17.9h0ZM229.7,55.3h-4.1l-5.6-5.6v-31.8h9.7v37.5h0ZM231.2,17.9h20.6v8.2h-20.6s0-8.2,0-8.2ZM248.8,32.5v8.2h-17.6v-8.2h17.6ZM231.2,55.3v-8.2h20.6v8.2h-20.6ZM287,17.9h9.7v37.5h-8.6l-24.4-35v-2.5h8.6l14.6,20.8v-20.8h0ZM263.8,22.8l9.7,13.9v18.6h-9.7V22.8ZM318.5,55.3h-9.7v-31.8l5.6-5.6h4.1v37.5h0ZM336.1,17.9l5.6,5.6v31.8h-9.7v-10.5h-12v-8.2h12v-10.5h-12v-8.2h16.1ZM363.5,55.3h-9.7V17.9h9.7v37.5h0ZM381.1,17.9l5.6,5.6v15.7l-5.6,5.6h-16.1v-8.2h12v-10.5h-12v-8.2s16.1,0,16.1,0ZM408.4,55.3h-9.7V17.9h9.7v37.5h0ZM432.4,23.5v13.1l-5.6,5.6,5.6,8.6v4.5h-9l-7.8-12.7h-5.7v-8.2h12.7v-8.2h-12.7v-8.2h16.9l5.6,5.6h0ZM443.3,55.3v-7.5h3v-22.5h-3v-7.5h15.7v7.5h-3v22.5h3v7.5h-15.7ZM497.6,17.9h9.7v37.5h-9.7v-21l-6.6,12.7h-4.9l-15-29.2h8.5l9,17s9-17,9-17ZM469.9,18.6l9.7,19v17.7h-9.7V18.6ZM529.1,55.3h-4.1l-5.6-5.6v-31.8h9.7v37.5h0ZM530.6,17.9h20.6v8.2h-20.6s0-8.2,0-8.2ZM548.2,32.5v8.2h-17.6v-8.2h17.6ZM530.6,55.3v-8.2h20.6v8.2h-20.6Z"/>
  </g>
  <g id="SvgjsG2742">
    <g class="st4">
      <g class="st4">
        <path class="st0" d="M188.6,82.1h5.8l.5-8.2h1.9l-.5,8.2h3.8v2.6h-3.9l-.4,6.7h4.3v2.6h-4.4l-.5,8.6h-1.9l.5-8.6h-5.8l-.4,8.6h-1.9l.4-8.6h-3.8v-2.6h3.9l.4-6.7h-4.3v-2.6h4.4l.5-8.2h1.9l-.5,8.2ZM188.1,91.4h5.8l.4-6.7h-5.8l-.4,6.7Z"/>
        <path class="st8" d="M229.3,81.4c0-.7.2-1.3.4-1.9.2-.6.4-1.1.7-1.6h-2.6c0-.3.2-.7.3-1,.1-.3.2-.7.4-1s.3-.6.4-.9.3-.5.5-.7h4.2c-.4.4-.7.8-1,1.4s-.5,1.1-.7,1.6h2.2c-.3.5-.5,1-.6,1.5s-.2,1-.3,1.6l4-.2c-.3.3-.5.7-.8,1.1s-.5.8-.8,1.2c-.2.4-.4.8-.6,1.3s-.3.8-.3,1.2c.3-.3.6-.6,1-.8.4-.2.8-.4,1.2-.6s.9-.3,1.3-.3.8-.1,1.2-.1c1.4,0,2.5.2,3.4.6s1.6.9,2.1,1.6c.5.7.8,1.6,1,2.6.2,1,.3,2.2.3,3.5s0,1.8-.2,2.7c-.1.9-.2,1.7-.4,2.5-.2.8-.4,1.5-.6,2.1-.2.6-.5,1.1-.8,1.5h-4.4c.9-1.4,1.6-2.8,2-4.3.4-1.5.5-2.9.5-4.3s0-1.8,0-2.6-.2-1.5-.4-2c-.2-.6-.6-1-1.1-1.3-.5-.3-1.2-.5-2.1-.5s-1.9.2-2.5.6c-.6.4-1.1.9-1.5,1.6-.3.6-.6,1.3-.7,2.1s-.2,1.5-.2,2.2,0,1.9.1,2.7.3,1.6.5,2.2.5,1.3.8,1.9c.3.6.7,1.2,1.2,1.7h-4.4c-.3-.4-.6-.8-.9-1.3s-.5-1.1-.7-1.8-.3-1.5-.4-2.4c-.1-.9-.2-1.9-.2-3.1s0-2.3.2-3.3c.1-1,.3-2,.5-2.8s.5-1.6.7-2.4.5-1.4.8-2h-2.9Z"/>
        <path class="st6" d="M272.4,76.1c.5-.3,1-.6,1.6-.8s1.2-.4,1.7-.6c.6-.1,1.1-.3,1.5-.3.5,0,.8-.1,1-.1.8,0,1.5,0,2.1.1.6,0,1.1.3,1.6.5s.8.5,1,.9c.2.4.3.8.3,1.4s0,1-.1,1.5c0,.5-.2,1-.3,1.5-.1.5-.3,1-.5,1.5-.2.5-.4.9-.6,1.4l3.4-.4c.6,0,1.1.1,1.3.4s.4.7.4,1.2,0,.8-.2,1.3c-.1.5-.3,1.2-.6,1.9-.2.4-.4.9-.5,1.4s-.4,1.1-.6,1.7-.4,1.2-.6,1.9c-.2.6-.3,1.2-.5,1.8s-.2,1.1-.3,1.6c0,.5-.1.9-.1,1.3,0,.7,0,1.3.3,1.7.2.5.4.9.8,1.3h-4.2c-.2-.2-.3-.4-.4-.6,0-.2-.2-.5-.2-.8s0-.5-.1-.8,0-.5,0-.6c0-.4,0-.9.2-1.5.1-.6.2-1.2.4-1.8.2-.6.4-1.3.6-2s.4-1.3.7-2c.2-.5.4-1.1.5-1.6.2-.5.3-1,.4-1.5.1-.5.2-.9.3-1.3s.1-.7.1-1,0-.2,0-.3c0,0,0-.2-.2-.2,0,0-.2-.1-.4-.1-.2,0-.4,0-.7,0l-4.2.5c.2-.5.5-1,.7-1.6s.5-1.2.7-1.8.4-1.2.5-1.8c.1-.6.2-1.1.2-1.6s0-.7-.1-1-.2-.7-.4-1c-.6,0-1.1,0-1.6.3s-1,.4-1.3.7-.7.6-1,1-.4.8-.5,1.2l-1,.2-.9-3.3Z"/>
        <path class="st7" d="M313.7,98.9c.2-.2.4-.4.7-.6s.7-.4,1-.6c.4-.2.8-.4,1.2-.6.4-.2.8-.3,1.2-.5.4-.1.8-.3,1.1-.4.3,0,.6-.2.8-.2-.3-.4-.6-.8-1-1.4-.4-.6-.7-1.2-1.1-1.9s-.7-1.5-1.1-2.3-.7-1.6-.9-2.5-.5-1.7-.7-2.6c-.2-.9-.2-1.7-.2-2.5,0-1.6.2-2.9.5-4,.3-1.1.8-2,1.4-2.7s1.4-1.2,2.4-1.5,2.1-.5,3.4-.5,2.2.2,3,.5c.8.3,1.5.8,2,1.4.5.6.9,1.3,1.1,2.1s.3,1.7.3,2.6c0,1.5-.2,2.8-.7,3.7s-1.1,1.7-2,2.2c-.8.5-1.8.9-2.9,1.1-1.1.2-2.2.3-3.4.3,0,.3.2.7.5,1.2.2.5.5,1,.8,1.5s.6,1.1,1,1.6c.3.6.7,1.1,1,1.5.3.5.6.8.9,1.2s.5.5.6.6c.3,0,.8.1,1.4.3s1.2.3,1.9.6c.7.2,1.3.5,1.9.8s1.1.6,1.5.9l-1.8,2.2c-.2-.2-.5-.4-1-.6-.4-.2-1-.4-1.6-.6s-1.3-.3-2-.4c-.7-.1-1.5-.2-2.2-.2s-1.7,0-2.4.2c-.8.1-1.4.3-2,.6-.6.2-1.1.5-1.5.7-.4.3-.7.5-.9.7l-2-2.1ZM318.7,82.9c0,.3,0,.6,0,1,0,.4,0,.8.1,1.2,0,.4.1.7.2,1s.2.5.2.7c.9-.1,1.7-.3,2.4-.5.7-.2,1.3-.5,1.7-.9s.8-.9,1.1-1.6.4-1.4.4-2.4,0-1.3,0-2c0-.6-.2-1.2-.3-1.7-.2-.5-.4-.9-.8-1.2-.3-.3-.8-.5-1.4-.5s-1.1.2-1.6.5c-.5.3-.8.8-1.1,1.4-.3.6-.5,1.3-.7,2.2s-.2,1.8-.2,2.9Z"/>
        <path class="st9" d="M393.8,101.4c.2-.2.4-.4.7-.6s.7-.4,1-.6c.4-.2.8-.4,1.2-.6.4-.2.8-.3,1.2-.5.4-.1.8-.3,1.1-.4.3,0,.6-.2.8-.2-.4-.5-.9-1.2-1.5-2.1-.5-.9-1-1.8-1.5-2.9s-.9-2.2-1.2-3.4-.5-2.4-.5-3.6.1-2.3.3-3.2c.2-.9.5-1.7,1-2.3s1-1.1,1.7-1.5,1.5-.6,2.5-.7v-2.4c-.7,0-1.4.2-2.1.3-.7.1-1.3.4-1.9.8l-.4-3.9,1.1-.2c0,.3.3.6.6.8.3.2.7.4,1.2.5.5.1,1,.2,1.5.2s1.1,0,1.6,0,1.1,0,1.6,0c.5,0,1-.1,1.4-.3.4-.1.8-.3,1.1-.5s.5-.4.5-.7l1.1.2-.4,3.9c-.5-.4-1.1-.6-1.8-.8s-1.4-.3-2.1-.3v2.4c.8.1,1.6.4,2.2.7.6.3,1.1.8,1.5,1.3.4.5.7,1.1.9,1.7s.3,1.3.3,2.1-.1,1.9-.3,2.7c-.2.8-.5,1.4-.9,1.9s-.9,1-1.4,1.3c-.5.3-1.1.6-1.8.8s-1.3.3-2,.4c-.7,0-1.4.1-2.2.1,0,.3.2.7.4,1.1.2.4.4.9.7,1.3.3.4.6.9.9,1.3.3.4.6.9.9,1.2s.6.7.8,1c.2.3.4.4.6.5.3,0,.8.1,1.4.3s1.2.3,1.9.6c.7.2,1.3.5,1.9.8s1.1.6,1.5.9l-1.8,2.2c-.2-.2-.5-.4-1-.6-.4-.2-1-.4-1.6-.6s-1.3-.3-2-.4c-.7-.1-1.5-.2-2.2-.2s-1.7,0-2.4.2c-.8.1-1.4.3-2,.6-.6.2-1.1.5-1.5.7-.4.3-.7.5-.9.7l-2-2.1ZM399.2,86.6c0,.3,0,.6,0,1,0,.4,0,.8.1,1.2,0,.4.1.7.2,1s.2.5.2.7c.8-.1,1.6-.3,2.2-.5s1.2-.5,1.6-.9c.4-.4.8-.9,1-1.5.2-.6.3-1.4.3-2.3s0-1.1-.1-1.6-.2-1.1-.4-1.6-.5-.9-.8-1.2-.7-.5-1.2-.5-1.1.2-1.5.5c-.4.3-.8.8-1,1.4s-.4,1.2-.5,2c-.1.8-.2,1.6-.2,2.4Z"/>
        <path class="st5" d="M443.3,85.4c-.9,0-1.6,0-2.3-.2-.6-.1-1.2-.4-1.6-.7-.4-.4-.7-.9-.9-1.7-.2-.7-.3-1.7-.3-2.9s0-1.7.3-2.3c.2-.6.4-1.1.8-1.5s.7-.7,1.2-.9,1-.4,1.6-.6c.3,0,.6-.1,1-.2s.9,0,1.3-.1,1,0,1.6,0,1.1,0,1.6,0c1.2,0,2.3,0,3.2.2.9.1,1.6.3,2.2.6s1.1.7,1.4,1.2.6,1.1.8,1.9c.2.8.3,1.7.4,2.8,0,1.1,0,2.3,0,3.8s0,1.3,0,2.2c0,.9-.1,1.8-.2,2.8s-.2,2.1-.3,3.1-.2,2.1-.4,3.1c-.1,1-.3,1.8-.5,2.6-.2.8-.3,1.4-.5,1.8h-4.3c.3-.6.5-1.3.8-2.1.2-.8.4-1.7.6-2.6.2-.9.3-1.9.4-2.9.1-1,.2-2,.3-2.9s.1-1.8.2-2.6,0-1.5,0-2.1c0-1.7,0-3.1,0-4.2s-.2-2-.4-2.7c-.2-.7-.6-1.2-1.1-1.5-.5-.3-1.2-.4-2.1-.4v4c0,1,0,1.9-.2,2.5-.1.7-.4,1.2-.7,1.6s-.8.7-1.5.8-1.4.2-2.4.2ZM443.3,75.8c-.4,0-.7,0-1,.3-.2.2-.4.4-.5.8-.1.4-.2.8-.2,1.3,0,.5,0,1.1,0,1.8s0,1.3,0,1.8c0,.5.1,1,.3,1.3s.3.6.6.8c.2.2.6.3.9.3s.7,0,.9-.3.4-.5.5-.8c.1-.4.2-.8.2-1.3,0-.5,0-1.1,0-1.7s0-1.3,0-1.9,0-1-.2-1.3c-.1-.4-.3-.6-.5-.8-.2-.2-.5-.3-1-.3Z"/>
        <path class="st3" d="M485.9,90.1c-.5,0-.9-.2-1.2-.5-.3-.3-.6-.8-.8-1.3-.2-.6-.4-1.2-.4-2,0-.8-.1-1.5-.1-2.4s0-1.7.1-2.6.2-1.6.4-2.4.5-1.4.9-2.1c.4-.6.9-1.2,1.5-1.6s1.3-.8,2.2-1.1c.9-.3,1.9-.4,3.1-.4s.6,0,1,0c.4,0,.9,0,1.3.1.5,0,.9.1,1.4.2s.9.1,1.2.2c.5.1,1,.2,1.5.4.4.2.8.4,1.1.7s.6.7.7,1.1c.2.4.3,1,.3,1.7s0,1.1-.2,1.6c-.1.5-.3.9-.6,1.2-.3.3-.7.6-1.2.8-.5.2-1.2.3-2.1.3s-1.4,0-1.9-.2c-.5-.1-.9-.4-1.2-.7s-.5-.7-.6-1.1c-.1-.5-.2-1-.2-1.7s0-.5,0-.7c0-.3,0-.5,0-.8,0-.3,0-.5,0-.7s0-.4.1-.6c-.2-.1-.4-.2-.7-.2s-.5,0-.7,0c-.5,0-1,.1-1.4.4-.4.3-.7.7-1,1.2s-.5,1-.7,1.6c-.2.6-.3,1.2-.4,1.9-.1.6-.2,1.2-.2,1.8,0,.6,0,1.1,0,1.5,0,1.4.2,2.4.7,3.1s1.3,1.1,2.4,1.1,1.1,0,1.6,0c.5,0,1,0,1.5-.1.5,0,1-.1,1.5-.2s1.1-.2,1.7-.3c-.6,2-1.1,3.8-1.5,5.4-.4,1.7-.6,3.1-.6,4.3s0,1.3.3,1.9c.2.5.4,1,.8,1.3h-4.2c-.3-.4-.6-.8-.7-1.2s-.2-1-.2-1.6.1-1.8.4-3c.2-1.2.6-2.6,1-4.3,0,0,0,0,0-.2,0-.4-.4-.6-1.2-.6s-.8,0-1.2.1c-.4,0-.8.2-1.2.3-.4.1-.8.2-1.2.3-.4,0-.8.1-1.2.1ZM494.7,78.4c0,.4,0,.8,0,1.1s.1.6.2.9c.1.2.2.4.4.6s.4.2.7.2.5,0,.7-.2c.2-.1.3-.3.4-.6.1-.2.2-.5.2-.9,0-.3,0-.7,0-1.1,0-.8,0-1.5-.3-2s-.6-.8-1.2-.9c-.3,0-.5,0-.7.2s-.3.4-.4.6-.2.6-.2.9,0,.7,0,1.1Z"/>
        <path class="st2" d="M527.4,85.4c.4-.2.8-.5,1.4-.7.6-.2,1.2-.4,1.8-.6s1.2-.3,1.8-.4c.6-.1,1.1-.2,1.4-.2,0-.5,0-1,0-1.6,0-.6,0-1.2,0-1.8s0-1.2.1-1.8c0-.6.1-1.1.2-1.6-.6,0-1.1.1-1.6.2-.5.1-1,.2-1.4.4-.4.2-.8.4-1.2.7s-.6.6-.8,1l-1.7-.2.3-3.1c.6-.2,1.2-.4,1.9-.6s1.5-.3,2.2-.4,1.5-.2,2.2-.2c.7,0,1.4,0,1.9,0s1.2,0,1.9,0,1.5.1,2.2.2,1.5.2,2.2.4,1.4.4,1.9.6l.3,3.1-1.7.2c-.2-.4-.4-.7-.8-1s-.7-.5-1.2-.7c-.4-.2-.9-.3-1.4-.4-.5-.1-1.1-.2-1.6-.2,0,.5-.1,1-.1,1.5,0,.6,0,1.1-.1,1.7s0,1.2,0,1.8,0,1.1,0,1.6c.4,0,.8,0,1.4.2s1.1.2,1.7.3c.6.1,1.2.3,1.7.4.5.1,1,.3,1.3.4l-.2,3.4c-.4-.2-.7-.5-1.1-.7s-.8-.4-1.2-.6c-.5-.2-1-.3-1.6-.4-.6-.1-1.3-.2-2.1-.3,0,1,0,2,0,3,0,1,0,2,0,3,0,1,.1,1.9.2,2.7s.2,1.6.4,2.2c.2.6.4,1.1.6,1.5s.6.6.9.6.4,0,.5-.2.2-.4.3-.7c0-.3.1-.6.1-1,0-.4,0-.9,0-1.4s0-.6-.1-.9-.2-.7-.4-1c-.2-.3-.4-.6-.6-.8-.2-.2-.5-.3-.9-.3s-.3,0-.5,0v-.8c.1,0,.4,0,.6,0,.2,0,.5,0,.7,0,1.3,0,2.2.4,2.9,1.1.7.7,1,1.7,1,2.9s-.3,2.6-1,3.4c-.7.7-1.7,1.1-3.2,1.1h-4.2c-.2-.5-.4-1.1-.5-1.8-.2-.7-.3-1.5-.4-2.3-.1-.8-.2-1.7-.3-2.6,0-.9-.1-1.8-.2-2.7,0-.9,0-1.7,0-2.4,0-.8,0-1.4,0-1.9-.5,0-1,0-1.5.1-.5,0-1,.2-1.5.4-.5.2-1,.4-1.5.7s-1.1.6-1.7,1v-3.2Z"/>
      </g>
    </g>
  </g>
</svg>