<?xml version="1.0" encoding="UTF-8"?>
<svg id="Capa_1" xmlns="http://www.w3.org/2000/svg" version="1.1" viewBox="0 0 800 800">
  <!-- Generator: Adobe Illustrator 29.0.0, SVG Export Plug-In . SVG Version: 2.1.0 Build 186)  -->
  <defs>
    <style>
      .st0 {
        fill: #fff;
      }
    </style>
  </defs>
  <circle class="st0" cx="400" cy="400" r="176.7"/>
  <path class="st0" d="M400,605.6c-113.4,0-205.6-92.2-205.6-205.6s92.2-205.6,205.6-205.6,205.6,92.2,205.6,205.6-92.2,205.6-205.6,205.6ZM400,252.2c-81.5,0-147.8,66.3-147.8,147.8s66.3,147.8,147.8,147.8,147.8-66.3,147.8-147.8-66.3-147.8-147.8-147.8Z"/>
  <path class="st0" d="M400,151.8c-16,0-28.9-12.9-28.9-28.9V28.9c0-16,12.9-28.9,28.9-28.9s28.9,12.9,28.9,28.9v94c0,16-12.9,28.9-28.9,28.9Z"/>
  <path class="st0" d="M400,800c-16,0-28.9-12.9-28.9-28.9v-94c0-16,12.9-28.9,28.9-28.9s28.9,12.9,28.9,28.9v94c0,16-12.9,28.9-28.9,28.9Z"/>
  <path class="st0" d="M771.1,428.9h-94c-16,0-28.9-12.9-28.9-28.9s12.9-28.9,28.9-28.9h94c16,0,28.9,12.9,28.9,28.9s-12.9,28.9-28.9,28.9Z"/>
  <path class="st0" d="M122.9,428.9H28.9c-16,0-28.9-12.9-28.9-28.9s12.9-28.9,28.9-28.9h94c16,0,28.9,12.9,28.9,28.9s-12.9,28.9-28.9,28.9Z"/>
  <path class="st0" d="M596,232.9c-7.4,0-14.8-2.8-20.4-8.5-11.3-11.3-11.3-29.6,0-40.9l66.4-66.4c11.3-11.3,29.6-11.3,40.9,0,11.3,11.3,11.3,29.6,0,40.9l-66.4,66.4c-5.6,5.6-13,8.5-20.4,8.5Z"/>
  <path class="st0" d="M137.6,691.3c-7.4,0-14.8-2.8-20.4-8.5-11.3-11.3-11.3-29.6,0-40.9l66.4-66.4c11.3-11.3,29.6-11.3,40.9,0,11.3,11.3,11.3,29.6,0,40.9l-66.4,66.4c-5.6,5.6-13,8.5-20.4,8.5Z"/>
  <path class="st0" d="M662.4,691.3c-7.4,0-14.8-2.8-20.4-8.5l-66.4-66.4c-11.3-11.3-11.3-29.6,0-40.9,11.3-11.3,29.6-11.3,40.9,0l66.4,66.4c11.3,11.3,11.3,29.6,0,40.9-5.6,5.6-13,8.5-20.4,8.5Z"/>
  <path class="st0" d="M204,232.9c-7.4,0-14.8-2.8-20.4-8.5l-66.4-66.4c-11.3-11.3-11.3-29.6,0-40.9,11.3-11.3,29.6-11.3,40.9,0l66.4,66.4c11.3,11.3,11.3,29.6,0,40.9-5.6,5.6-13,8.5-20.4,8.5Z"/>
</svg>