<svg xmlns="http://www.w3.org/2000/svg" shape-rendering="geometricPrecision" text-rendering="geometricPrecision" image-rendering="optimizeQuality" fill-rule="evenodd" clip-rule="evenodd" viewBox="0 0 512 512"><path fill="#FF343F" fill-rule="nonzero" d="M256.001 0C326.69 0 390.69 28.655 437.019 74.982 483.343 121.307 512 185.31 512 255.999c0 70.69-28.657 134.693-74.981 181.018C390.69 483.345 326.69 512 256.001 512c-70.689 0-134.691-28.655-181.019-74.981C28.655 390.69 0 326.689 0 255.999 0 185.31 28.657 121.307 74.982 74.982 121.31 28.655 185.312 0 256.001 0z"/><path fill="#D2DADA" d="M256.001 25.943c127.055 0 230.056 102.999 230.056 230.056 0 127.057-103.001 230.058-230.056 230.058-127.057 0-230.058-103.001-230.058-230.058 0-127.057 103.001-230.056 230.058-230.056z"/><path fill="#E9F2F2" d="M256.001 44.295c116.921 0 211.704 94.783 211.704 211.704s-94.783 211.706-211.704 211.706S44.295 372.92 44.295 255.999c0-116.921 94.785-211.704 211.706-211.704z"/><path fill="#4D4D4D" fill-rule="nonzero" d="M265.814 436.178c0 5.421-4.396 9.817-9.817 9.817-5.42 0-9.817-4.396-9.817-9.817v-17.591c0-5.421 4.397-9.817 9.817-9.817 5.421 0 9.817 4.396 9.817 9.817v17.591zm88.754-29.013c2.688 4.679 1.074 10.656-3.604 13.344-4.679 2.688-10.656 1.074-13.344-3.605l-8.795-15.236c-2.688-4.678-1.074-10.655 3.605-13.343 4.678-2.688 10.655-1.074 13.343 3.604l8.795 15.236zM157.44 104.826c-2.688-4.678-1.074-10.655 3.604-13.343 4.679-2.688 10.655-1.074 13.343 3.604l8.795 15.237c2.688 4.679 1.074 10.656-3.604 13.344-4.679 2.688-10.656 1.074-13.344-3.604l-8.794-15.238zm259.511 232.787c4.678 2.71 6.275 8.704 3.565 13.382-2.711 4.679-8.704 6.276-13.382 3.566l-15.234-8.799c-4.679-2.71-6.276-8.704-3.566-13.382 2.71-4.679 8.704-6.276 13.383-3.565l15.234 8.798zM95.054 174.384c-4.679-2.711-6.276-8.704-3.566-13.383 2.71-4.678 8.704-6.275 13.383-3.565l15.233 8.796c4.679 2.711 6.276 8.705 3.566 13.383-2.71 4.679-8.704 6.276-13.383 3.566l-15.233-8.797zm341.124 71.833c5.4 0 9.778 4.379 9.778 9.778 0 5.401-4.378 9.778-9.778 9.778l-17.591-.001c-5.401 0-9.778-4.378-9.778-9.778s4.377-9.778 9.778-9.778l17.591.001zM75.822 265.816c-5.42 0-9.817-4.396-9.817-9.817 0-5.42 4.397-9.817 9.817-9.817h17.592c5.42 0 9.817 4.397 9.817 9.817 0 5.421-4.397 9.817-9.817 9.817H75.822zm331.345-108.382c4.678-2.688 10.655-1.074 13.343 3.605 2.688 4.678 1.074 10.655-3.604 13.343l-15.236 8.793c-4.678 2.688-10.655 1.074-13.343-3.605-2.688-4.678-1.075-10.655 3.604-13.343l15.236-8.793zM104.83 354.561c-4.679 2.688-10.656 1.074-13.344-3.604-2.688-4.679-1.074-10.656 3.605-13.344l15.235-8.793c4.679-2.688 10.656-1.074 13.344 3.604 2.688 4.679 1.074 10.656-3.605 13.344l-15.235 8.793zM337.611 95.05c2.71-4.678 8.704-6.276 13.383-3.565 4.678 2.71 6.275 8.704 3.565 13.382l-8.799 15.234c-2.71 4.678-8.703 6.276-13.382 3.565-4.678-2.71-6.276-8.704-3.565-13.382l8.798-15.234zM174.382 416.947c-2.71 4.678-8.704 6.276-13.383 3.565-4.678-2.71-6.275-8.704-3.565-13.382l8.797-15.234c2.71-4.679 8.704-6.276 13.382-3.566 4.679 2.711 6.276 8.705 3.566 13.383l-8.797 15.234zm71.834-341.125c0-5.4 4.378-9.778 9.778-9.778s9.778 4.378 9.778 9.778l-.002 17.592c0 5.4-4.378 9.778-9.778 9.778s-9.778-4.378-9.778-9.778l.002-17.592z"/><path fill-rule="nonzero" d="M242.778 236.349l.319-65.438a8.981 8.981 0 01-9.297-1.245c-3.853-3.129-4.443-8.794-1.314-12.648l15.791-19.533a8.973 8.973 0 016.698-3.321h.03l.187-.002c2.826-.048 5.628 1.219 7.423 3.671l14.907 20.219a8.997 8.997 0 01-10.581 13.677l-.308 63.104a23.793 23.793 0 019.859 9.286l45.108.004a9 9 0 0113.783-10.642l19.881 15.347c4.667 3.608 4.665 10.744 0 14.352l-19.881 15.351a9 9 0 01-13.787-10.635l-45.111-.002c-4.104 7.051-11.741 11.793-20.486 11.793-13.08 0-23.685-10.606-23.685-23.686 0-8.184 4.153-15.397 10.464-19.652z"/><path fill="#F64A32" d="M252.951 251.928l7.172 4.073-58.327 103.055-7.172-4.074z"/><path fill="#E6E6E6" d="M255.999 244.767c6.204 0 11.235 5.029 11.235 11.234 0 6.203-5.031 11.234-11.235 11.234-6.205 0-11.234-5.031-11.234-11.234 0-6.205 5.029-11.234 11.234-11.234z"/></svg>